<svg width="235" height="220" viewBox="0 0 235 220" fill="none" xmlns="http://www.w3.org/2000/svg">
<path d="M186.327 94.8604C186.32 94.85 186.303 94.8483 186.294 94.8379C186.272 94.8084 186.248 94.7928 186.215 94.7789C186.187 94.7616 186.163 94.7443 186.128 94.7391C186.112 94.7373 186.105 94.7217 186.088 94.7217C186.064 94.7217 186.048 94.7443 186.026 94.7512C186.007 94.7564 185.981 94.746 185.958 94.7616L185.591 94.9661V94.9678L185.586 94.9696L185.333 95.1186H185.327L185.123 95.2451L184.847 95.3994L184.814 95.4167H184.809L177.159 99.8361C177.147 99.843 177.144 99.8551 177.135 99.8655C177.106 99.8881 177.09 99.9175 177.073 99.947C177.057 99.9747 177.043 99.999 177.035 100.034C177.033 100.049 177.022 100.056 177.022 100.072V120.382C177.022 120.406 177.042 120.427 177.047 120.449C177.057 120.468 177.047 120.494 177.057 120.512C177.064 120.527 177.08 120.522 177.085 120.531C177.132 120.598 177.204 120.647 177.291 120.647C177.341 120.647 177.383 120.636 177.428 120.612L186.225 115.536C186.236 115.531 186.237 115.517 186.249 115.512C186.268 115.493 186.284 115.477 186.296 115.46C186.303 115.45 186.319 115.455 186.324 115.444C186.334 115.434 186.324 115.42 186.329 115.404C186.339 115.38 186.346 115.365 186.348 115.342C186.348 115.326 186.364 115.318 186.364 115.307V94.9886C186.364 94.9661 186.341 94.9487 186.339 94.9297C186.327 94.9037 186.338 94.8829 186.327 94.8604ZM184.149 114.223C184.154 114.217 184.168 114.217 184.173 114.207V114.212L184.144 114.228C184.149 114.228 184.149 114.223 184.149 114.223ZM182.596 97.597L184.067 96.7477V104.483L182.596 105.335V97.597ZM180.3 98.9262L181.664 98.1412V105.865L180.3 106.656V98.9262ZM177.811 100.363L179.364 99.4635V107.198L177.811 108.098V100.363ZM177.563 109.684L183.461 106.278V113.798L177.563 117.203V109.684ZM177.563 119.307V118.647L184.501 114.64H184.506L184.579 114.6C184.589 114.59 184.594 114.576 184.601 114.571C184.629 114.546 184.646 114.52 184.66 114.489C184.665 114.484 184.676 114.479 184.679 114.47V115.03C184.679 115.082 184.709 115.127 184.731 115.172L177.563 119.307Z" fill="#001A23"/>
<path d="M20.1911 107.731C20.1963 107.766 20.2102 107.79 20.2293 107.823C20.2466 107.852 20.2622 107.878 20.2882 107.899C20.3003 107.91 20.3003 107.922 20.3124 107.932L35.3245 116.596C35.3661 116.62 35.4112 116.63 35.4579 116.63C35.503 116.63 35.5498 116.62 35.5949 116.596L35.9605 116.383C36.0871 116.306 36.1321 116.143 36.0593 116.015C35.9865 115.899 35.8514 115.868 35.7231 115.913V114.691C35.7578 114.707 35.782 114.731 35.8219 114.731C35.9709 114.731 36.0905 114.61 36.0905 114.466L36.0801 102.611C36.0801 102.599 36.0645 102.589 36.0645 102.577C36.0628 102.549 36.0541 102.532 36.0455 102.513C36.0403 102.5 36.0455 102.485 36.0403 102.474C36.0333 102.462 36.0212 102.462 36.0125 102.455C35.9969 102.433 35.9848 102.421 35.9657 102.405C35.9536 102.395 35.9501 102.383 35.9415 102.372L20.9294 93.7135C20.9173 93.7066 20.9052 93.7135 20.8913 93.7083C20.8532 93.6927 20.8289 93.6962 20.789 93.6962C20.7544 93.6962 20.7301 93.6962 20.692 93.7083C20.6816 93.7135 20.6677 93.7066 20.6539 93.7135L20.2917 93.9267C20.2813 93.9319 20.2813 93.9458 20.2726 93.9544C20.2535 93.97 20.2397 93.9822 20.2223 94.0047C20.2154 94.0116 20.2033 94.0151 20.1946 94.0272C20.1877 94.0376 20.1946 94.0497 20.1929 94.0619C20.1807 94.0844 20.1755 94.1035 20.1703 94.126C20.1686 94.1381 20.1582 94.1485 20.1582 94.1607L20.1634 107.701C20.1755 107.712 20.1877 107.717 20.1911 107.731ZM35.1806 102.975L35.1875 115.897L20.7145 107.542L20.7076 94.6203L35.1806 102.975Z" fill="#001A23"/>
<path d="M45.501 122.403C45.5184 122.438 45.5357 122.466 45.56 122.485C45.5721 122.495 45.5721 122.509 45.5825 122.514L60.6118 131.195C60.6534 131.219 60.6985 131.23 60.7436 131.23C60.7938 131.23 60.8406 131.219 60.8805 131.195L61.2462 130.982C61.2583 130.977 61.2583 130.963 61.2687 130.953C61.2982 130.933 61.3103 130.902 61.3276 130.876C61.3449 130.842 61.3605 130.819 61.3657 130.784C61.3675 130.774 61.3813 130.765 61.3813 130.75V117.211C61.3813 117.195 61.3692 117.192 61.3657 117.176C61.3605 117.147 61.3553 117.131 61.3484 117.108C61.3467 117.098 61.3501 117.089 61.3467 117.074C61.3363 117.063 61.3224 117.063 61.3172 117.055C61.3016 117.03 61.2877 117.015 61.2652 117.004C61.2583 116.994 61.2531 116.98 61.2427 116.97L46.2116 108.296C46.1994 108.289 46.189 108.296 46.1769 108.29C46.144 108.275 46.118 108.275 46.0798 108.275C46.0417 108.275 46.0157 108.275 45.9811 108.29C45.9707 108.296 45.9568 108.289 45.9464 108.296L45.5842 108.502C45.5738 108.512 45.5738 108.524 45.5616 108.531C45.5426 108.547 45.5287 108.561 45.5114 108.582C45.5045 108.592 45.4889 108.592 45.4837 108.606C45.4767 108.613 45.4837 108.628 45.4785 108.639C45.4681 108.661 45.4629 108.68 45.4594 108.703C45.4594 108.715 45.4473 108.722 45.4473 108.738V122.281C45.4473 122.297 45.4594 122.301 45.4594 122.316C45.4663 122.349 45.4819 122.38 45.501 122.403L45.501 122.403ZM45.9863 109.204L60.4784 117.57V130.497L45.9863 122.126V109.204Z" fill="#001A23"/>
<path d="M142.298 63.3419C142.293 63.3228 142.303 63.3037 142.293 63.2899L141.982 62.6157C141.975 62.5984 141.955 62.5967 141.943 62.5776C141.932 62.562 141.932 62.5395 141.923 62.5273C141.913 62.5204 141.899 62.5256 141.889 62.5169C141.882 62.51 141.882 62.4979 141.87 62.4892L130.064 55.6749C130.04 55.6593 130.014 55.6749 129.991 55.6645C129.957 55.6541 129.924 55.6471 129.889 55.6523C129.873 55.6541 129.865 55.6541 129.844 55.6593L129.811 55.5865C129.801 55.5674 129.782 55.5639 129.773 55.5466C129.757 55.531 129.763 55.512 129.749 55.4964C129.742 55.486 129.73 55.4912 129.719 55.486C129.709 55.4756 129.709 55.4634 129.697 55.4582L117.898 48.6403C117.873 48.6282 117.847 48.6386 117.821 48.6334C117.787 48.623 117.759 48.6161 117.728 48.6178C117.709 48.623 117.69 48.623 117.676 48.6334L117.636 48.552C117.626 48.5346 117.607 48.5294 117.598 48.5138C117.586 48.5017 117.591 48.4792 117.574 48.4636C117.567 48.4566 117.555 48.4618 117.546 48.4532C117.534 48.4462 117.534 48.4341 117.522 48.4254L105.724 41.6195C105.7 41.6039 105.674 41.6143 105.652 41.6091C105.617 41.5987 105.587 41.5918 105.549 41.597C105.534 41.5987 105.516 41.5987 105.499 41.6039L105.459 41.519C105.452 41.5034 105.431 41.4999 105.419 41.4861C105.409 41.4687 105.409 41.4479 105.4 41.4358C105.39 41.4254 105.378 41.4306 105.366 41.4237C105.359 41.4185 105.359 41.4046 105.35 41.3994L93.5475 34.5869C93.5232 34.5713 93.4972 34.5851 93.4747 34.5765C93.44 34.5661 93.4106 34.5574 93.3759 34.5643C93.3534 34.5661 93.343 34.5661 93.3239 34.5747L93.2841 34.4933C93.2771 34.4759 93.2563 34.4759 93.2442 34.4586C93.2338 34.443 93.239 34.4205 93.2251 34.4083C93.2182 34.4014 93.2061 34.4066 93.1957 34.398C93.1853 34.391 93.1853 34.3789 93.1766 34.3702L81.3741 27.5559C81.3515 27.5403 81.329 27.5559 81.3013 27.5489C81.2666 27.5368 81.2389 27.5299 81.2025 27.5333C81.1644 27.5385 81.147 27.5559 81.1158 27.5749C81.0933 27.5871 81.0638 27.5853 81.0465 27.6079L59.9131 50.1171C59.9027 50.1275 59.9079 50.1396 59.8975 50.15C59.8923 50.1604 59.8785 50.1604 59.8733 50.1725C59.8715 50.1777 59.8733 50.1847 59.8733 50.1951C59.8577 50.2176 59.8577 50.2401 59.8577 50.2644C59.8507 50.2921 59.8455 50.3164 59.8507 50.3406C59.8525 50.3597 59.8525 50.3753 59.8577 50.3926C59.8629 50.3996 59.8577 50.4082 59.8629 50.4169L60.1731 51.0928C60.1974 51.1431 60.2355 51.1794 60.2806 51.2072L60.2823 51.2089L65.7417 54.3597L65.8508 54.5954C65.8751 54.6474 65.9132 54.6855 65.96 54.715C65.96 54.715 65.96 54.7202 65.9618 54.7202L66.7001 55.1396C66.7451 55.1638 66.7902 55.1777 66.8335 55.1777C66.8751 55.1777 66.9132 55.1656 66.9531 55.1482C66.9774 55.1378 66.9826 55.1101 67.0034 55.0962L72.0794 58.0252L72.0898 58.0304C72.1297 58.0546 72.1765 58.0685 72.2215 58.0685C72.2544 58.0685 72.2839 58.0581 72.3134 58.0494L72.348 58.117C72.3723 58.169 72.407 58.2089 72.4555 58.2366V58.2418L77.918 61.3995L78.0254 61.63C78.0497 61.6803 78.0878 61.7201 78.1329 61.7444L78.1346 61.7461L78.8677 62.1742C78.9093 62.2019 78.9578 62.2123 79.0046 62.2123C79.0427 62.2123 79.0791 62.2019 79.119 62.1881C79.1432 62.1759 79.1536 62.143 79.171 62.1291L84.2612 65.0633C84.3011 65.0875 84.3479 65.0979 84.3929 65.0979C84.4259 65.0979 84.4501 65.0875 84.483 65.0789L84.5246 65.1603C84.5437 65.2123 84.5818 65.2504 84.6269 65.2764C84.6269 65.2782 84.6269 65.2782 84.6321 65.2782L90.0915 68.4255L90.1989 68.6594C90.2232 68.7114 90.2613 68.7513 90.3064 68.779H90.3116L91.0343 69.2019L91.0412 69.2071C91.0863 69.2314 91.1278 69.2418 91.1746 69.2418C91.2145 69.2418 91.2509 69.2348 91.2908 69.2175C91.315 69.2054 91.3254 69.1759 91.3462 69.1551L96.4191 72.0875L96.4313 72.0927C96.4729 72.117 96.5179 72.1274 96.5647 72.1274C96.5942 72.1274 96.6236 72.1204 96.6548 72.11L96.693 72.1898C96.7172 72.2418 96.7554 72.2764 96.8004 72.3059H96.8022L102.263 75.4618L102.371 75.6872C102.398 75.7391 102.433 75.7773 102.478 75.8033V75.805L103.206 76.2296L103.211 76.2313C103.256 76.2556 103.303 76.2695 103.348 76.2695C103.388 76.2695 103.424 76.2591 103.461 76.2452C103.489 76.2296 103.496 76.2036 103.516 76.188L108.598 79.117L108.605 79.1221C108.65 79.1499 108.691 79.1603 108.742 79.1603C108.771 79.1603 108.794 79.1499 108.823 79.1412L108.861 79.2209C108.885 79.2712 108.924 79.3076 108.969 79.3353L108.97 79.3371L114.433 82.493L114.545 82.7235C114.57 82.7738 114.608 82.8102 114.653 82.8379L115.386 83.2677C115.426 83.292 115.473 83.3058 115.519 83.3058C115.558 83.3058 115.594 83.2954 115.634 83.2816C115.663 83.2694 115.674 83.2365 115.691 83.2174L120.778 86.1585C120.823 86.1828 120.864 86.1966 120.915 86.1966C120.949 86.1966 120.987 86.1897 121.022 86.1724C121.041 86.162 121.046 86.1394 121.062 86.1308C121.077 86.1204 121.1 86.1238 121.112 86.1117L142.246 63.5972C142.261 63.5816 142.256 63.5642 142.265 63.5469C142.284 63.514 142.294 63.4897 142.304 63.4533C142.304 63.41 142.303 63.3771 142.298 63.3424L142.298 63.3419ZM71.8561 56.3643L61.078 50.1475L81.3276 28.5723L92.1057 34.7908L71.8561 56.3643ZM84.0243 63.3885L73.2408 57.17L93.4953 35.5982L104.273 41.8198L84.0243 63.3885ZM96.1924 70.418L85.4143 64.1964L105.664 42.6247L116.447 48.848L96.1924 70.418ZM108.362 77.4386L97.5842 71.2153L117.834 49.652L128.612 55.8753L108.362 77.4386ZM120.53 84.4682L109.754 78.2448L130 56.6766L140.776 62.8951L120.53 84.4682ZM120.993 85.4387L120.924 85.2844L141.662 63.1998L141.729 63.3506L120.993 85.4387Z" fill="#001A23"/>
<path d="M150.356 159.969L149.451 159.028L141.571 150.799H141.566L141.205 150.421H141.203C141.17 150.387 141.124 150.376 141.073 150.364C141.054 150.359 141.039 150.345 141.016 150.345C141.016 150.345 141.016 150.34 141.015 150.34C140.969 150.34 140.94 150.369 140.905 150.39C140.878 150.395 140.848 150.395 140.829 150.414V150.42C140.8 150.449 140.794 150.487 140.779 150.527C140.768 150.557 140.744 150.579 140.744 150.609V154.884L140.746 154.889C140.746 154.9 140.753 154.908 140.758 154.924C140.758 154.943 140.768 154.964 140.777 154.981C140.782 154.997 140.775 155.011 140.782 155.021C140.787 155.031 140.801 155.026 140.807 155.037C140.817 155.052 140.817 155.066 140.826 155.076C140.831 155.076 140.831 155.082 140.831 155.082C140.838 155.092 140.85 155.087 140.86 155.097C140.871 155.102 140.871 155.113 140.878 155.116L150.028 160.395C150.07 160.425 150.115 160.435 150.162 160.435C150.229 160.435 150.295 160.411 150.349 160.359C150.359 160.348 150.356 160.329 150.365 160.319C150.375 160.308 150.389 160.308 150.394 160.3C150.406 160.281 150.399 160.255 150.404 160.237C150.415 160.197 150.422 160.175 150.42 160.135C150.415 160.1 150.401 160.078 150.38 160.048C150.368 160.01 150.373 159.986 150.356 159.969ZM141.644 154.498V151.647L147.761 158.026L141.644 154.498Z" fill="#001A23"/>
<path d="M234.705 128.229C234.695 128.218 234.686 128.218 234.676 128.205C234.67 128.199 234.674 128.185 234.665 128.175L234.66 128.17L212.376 104.915V102.439L215.641 104.328C215.681 104.35 215.728 104.362 215.773 104.362C215.82 104.362 215.865 104.35 215.906 104.328L220.308 101.782C220.319 101.775 220.319 101.759 220.327 101.752C220.357 101.733 220.372 101.706 220.384 101.676C220.404 101.643 220.419 101.621 220.424 101.584C220.426 101.572 220.44 101.565 220.44 101.551V97.1892C220.44 97.1736 220.428 97.1667 220.424 97.1511C220.419 97.1164 220.405 97.0921 220.386 97.0609C220.369 97.028 220.353 97.0038 220.327 96.9812C220.315 96.9743 220.315 96.9587 220.303 96.9518L196.984 83.4872V68.4978L197.105 68.4857L200.249 70.3002C200.291 70.3227 200.336 70.3349 200.383 70.3349C200.429 70.3349 200.475 70.3227 200.516 70.3002L204.916 67.7577C204.929 67.7508 204.932 67.7352 204.941 67.7283C204.97 67.7058 204.986 67.678 204.998 67.6468C205.017 67.6191 205.033 67.5948 205.038 67.5602C205.04 67.5446 205.053 67.5376 205.053 67.5221V63.0019C205.053 62.9967 205.048 62.995 205.048 62.9898C205.048 62.9898 205.053 62.9846 205.053 62.9794C205.048 62.969 205.041 62.9673 205.041 62.9569C205.036 62.9274 205.019 62.9049 205 62.8806C204.989 62.8529 204.984 62.8286 204.96 62.8078C204.953 62.8009 204.944 62.8009 204.936 62.7922C204.925 62.787 204.925 62.7749 204.916 62.7697L114.758 10.7093C114.734 10.6937 114.706 10.7041 114.673 10.6989C114.649 10.6937 114.628 10.6712 114.604 10.6747L76.7689 14.0767L52.4451 0.0367802C52.3186 -0.0377432 52.1539 0.00385143 52.0829 0.135568L21.2513 53.5358L0.077989 75.6311V75.6328L0.076256 75.6345C0.0693236 75.6449 0.0710567 75.6571 0.0641243 75.6692C0.0589249 75.6796 0.0450601 75.6796 0.0346618 75.6883C0.024263 75.7073 0.0346618 75.7351 0.0277294 75.7558C0.0259965 75.7784 0 75.7957 0 75.82V80.3259C0 80.338 0.0121319 80.3484 0.0155978 80.3606C0.0207972 80.3952 0.0346617 80.4177 0.0537258 80.4472C0.0727894 80.4801 0.0866564 80.5044 0.116117 80.5287C0.12305 80.5356 0.128248 80.5477 0.138647 80.5564L8.06216 85.1351V126.519C8.06216 126.535 8.07256 126.538 8.07776 126.554C8.08296 126.589 8.09683 126.616 8.11589 126.646C8.13495 126.675 8.15402 126.703 8.17482 126.722C8.19041 126.733 8.19041 126.746 8.19908 126.757L8.79529 127.096V132.866C8.79529 132.882 8.80568 132.885 8.80742 132.901C8.81435 132.935 8.82995 132.958 8.84554 132.993C8.86461 133.022 8.88021 133.045 8.90793 133.069C8.91833 133.079 8.92006 133.088 8.9322 133.098L159.385 219.96C159.431 219.99 159.477 220 159.522 220C159.569 220 159.612 219.99 159.656 219.96L176.193 210.409L183.94 214.884C183.981 214.908 184.03 214.919 184.073 214.919C184.12 214.919 184.163 214.908 184.207 214.884L205.83 202.399C205.842 202.394 205.846 202.38 205.854 202.369C205.884 202.35 205.9 202.319 205.912 202.288C205.931 202.264 205.946 202.236 205.952 202.201C205.953 202.186 205.967 202.182 205.967 202.167V199.778L206.563 199.433C206.574 199.428 206.574 199.414 206.586 199.404C206.614 199.385 206.631 199.354 206.645 199.328C206.664 199.298 206.679 199.276 206.685 199.236C206.685 199.22 206.697 199.217 206.697 199.201V198.778C206.697 198.768 206.685 198.759 206.685 198.744C206.679 198.725 206.674 198.704 206.666 198.681C206.66 198.671 206.667 198.657 206.66 198.641C206.655 198.631 206.641 198.631 206.633 198.622C206.615 198.603 206.603 198.593 206.582 198.572C206.57 198.562 206.57 198.553 206.56 198.543L203.622 196.848L201.926 195.867V195.546L230.015 179.33C230.026 179.319 230.026 179.305 230.04 179.295C230.064 179.276 230.081 179.245 230.098 179.219C230.116 179.189 230.131 179.161 230.137 179.127C230.138 179.116 230.152 179.108 230.152 179.092V173.115L230.565 172.872C230.577 172.861 230.577 172.848 230.589 172.842C230.618 172.818 230.629 172.79 230.646 172.761C230.663 172.731 230.681 172.709 230.686 172.674C230.686 172.659 230.702 172.655 230.702 172.64V168.836C230.702 168.82 230.686 168.811 230.684 168.801C230.683 168.777 230.677 168.756 230.667 168.733C230.662 168.723 230.669 168.709 230.662 168.699C230.657 168.688 230.643 168.683 230.632 168.68C230.617 168.655 230.605 168.645 230.582 168.629C230.575 168.619 230.575 168.605 230.563 168.595L229.967 168.255V164.6C229.967 164.584 229.956 164.581 229.951 164.57C229.949 164.541 229.944 164.525 229.932 164.503C229.927 164.487 229.937 164.479 229.927 164.468C229.922 164.453 229.908 164.453 229.903 164.444C229.884 164.425 229.873 164.409 229.852 164.394C229.842 164.388 229.842 164.375 229.83 164.369L229.235 164.019V136.118L234.594 133.028C234.606 133.023 234.606 133.009 234.617 132.999C234.646 132.98 234.662 132.948 234.676 132.917C234.693 132.893 234.708 132.865 234.714 132.83C234.719 132.82 234.729 132.811 234.729 132.796V128.35C234.729 128.326 234.71 128.305 234.702 128.283C234.705 128.271 234.715 128.245 234.705 128.225L234.705 128.229ZM234.04 128.303L163.412 169.074L142.169 146.893L145.538 144.946C145.55 144.936 145.55 144.927 145.563 144.917C145.59 144.893 145.602 144.867 145.62 144.841C145.637 144.806 145.654 144.784 145.66 144.749C145.661 144.733 145.675 144.73 145.675 144.714V143.685L210.775 106.101L212.063 105.361L234.04 128.303ZM166.757 178.939L169.045 177.621L170.284 176.903L172.173 175.813V179.321L163.365 184.407V180.9L165.514 179.652L166.757 178.939ZM165.651 178.953V172.841L166.355 172.439V178.553L165.651 178.953ZM166.946 177.868V172.104L168.344 171.295V177.059L166.946 177.868ZM169.182 176.922V170.806L169.882 170.399V176.513L169.182 176.922ZM170.469 175.829V170.059L171.875 169.25V175.019L170.469 175.829ZM173.26 178.099C173.254 178.075 173.265 178.054 173.249 178.031C173.244 178.021 173.23 178.021 173.22 178.007C173.197 177.983 173.173 177.962 173.143 177.945C173.114 177.929 173.091 177.915 173.052 177.905C173.036 177.905 173.032 177.894 173.017 177.894C172.993 177.894 172.975 177.914 172.955 177.919C172.935 177.924 172.908 177.914 172.89 177.924L172.776 177.986C172.76 177.997 172.76 178.011 172.752 178.021C172.736 178.031 172.719 178.031 172.712 178.04V176.024C172.719 176.035 172.736 176.04 172.752 176.044L172.767 176.059L172.79 176.07C172.805 176.08 172.823 176.08 172.842 176.085C172.861 176.09 172.882 176.109 172.904 176.109C172.909 176.109 172.911 176.109 172.92 176.104L172.922 176.109H172.923V176.104C172.948 176.104 172.974 176.104 172.996 176.094C173.003 176.094 173.007 176.083 173.015 176.078C173.031 176.073 173.045 176.073 173.06 176.063L173.159 176.011C173.166 176 173.171 175.986 173.178 175.981C173.206 175.957 173.22 175.931 173.237 175.9C173.253 175.87 173.272 175.848 173.277 175.808C173.277 175.803 173.289 175.792 173.289 175.778V175.647C173.289 175.622 173.266 175.602 173.26 175.579C173.253 175.56 173.261 175.534 173.247 175.511C173.242 175.501 173.228 175.501 173.223 175.492C173.199 175.463 173.171 175.447 173.142 175.43C173.112 175.413 173.086 175.395 173.052 175.39C173.039 175.39 173.029 175.38 173.019 175.38C172.989 175.38 172.974 175.399 172.951 175.409C172.932 175.409 172.901 175.404 172.883 175.414L172.767 175.487C172.757 175.492 172.757 175.506 172.748 175.511C172.733 175.522 172.721 175.522 172.714 175.536V169.347L172.766 169.382C172.811 169.406 172.852 169.416 172.903 169.416C172.948 169.416 172.994 169.406 173.039 169.382L174.104 168.77V178.203L172.715 179.004V178.546C172.762 178.597 172.83 178.628 172.904 178.628C172.955 178.628 173.001 178.612 173.046 178.588L173.161 178.515C173.173 178.51 173.173 178.496 173.183 178.491C173.208 178.467 173.223 178.439 173.24 178.415C173.256 178.38 173.275 178.352 173.28 178.318C173.28 178.307 173.292 178.299 173.292 178.288V178.156C173.286 178.139 173.263 178.123 173.26 178.099ZM173.168 168.685V168.501L173.299 168.425L173.461 168.522L173.168 168.685ZM174.367 178.673L175.329 179.232C175.374 179.257 175.416 179.272 175.466 179.272C175.511 179.272 175.556 179.257 175.597 179.232L176.017 178.993L176.253 179.125C176.292 179.144 176.339 179.16 176.384 179.16C176.429 179.16 176.474 179.144 176.516 179.125L177.987 178.276C178.003 178.271 178.003 178.257 178.01 178.251C178.043 178.227 178.055 178.199 178.072 178.17C178.09 178.141 178.105 178.118 178.11 178.078C178.112 178.068 178.126 178.059 178.126 178.044L178.124 177.777L179.27 177.116C179.28 177.111 179.28 177.097 179.289 177.087C179.322 177.068 179.334 177.037 179.351 177.005C179.367 176.976 179.386 176.953 179.389 176.919C179.391 176.903 179.405 176.9 179.405 176.884V164.914L201.249 152.297L222.231 164.409H222.226C222.207 164.425 222.191 164.439 222.176 164.46C222.171 164.47 222.157 164.47 222.152 164.484C222.141 164.494 222.152 164.503 222.145 164.519C222.134 164.543 222.127 164.558 222.127 164.581C222.122 164.597 222.112 164.6 222.112 164.616V168.846C222.112 168.862 222.122 168.865 222.127 168.881C222.133 168.91 222.146 168.938 222.165 168.967C222.183 168.997 222.198 169.025 222.224 169.049C222.235 169.054 222.24 169.068 222.247 169.078L225.876 171.17L163.265 207.312V203.118C163.265 203.102 163.255 203.099 163.25 203.083C163.25 203.059 163.243 203.038 163.234 203.021C163.229 203.011 163.234 202.997 163.229 202.981C163.222 202.971 163.21 202.965 163.199 202.962C163.184 202.943 163.17 202.927 163.149 202.912C163.139 202.901 163.139 202.887 163.126 202.882L162.532 202.537V185.501L163.225 185.094L172.572 179.697L174.367 178.673ZM174.636 178.206V167.657L175.192 167.331V178.532L174.636 178.206ZM175.731 178.536V167.025L175.747 167.014V178.525L175.731 178.536ZM176.648 178.425V166.501L177.58 165.957V177.882L176.648 178.425ZM178.119 177.16V165.649L178.863 165.221V176.727L178.119 177.16ZM225.774 166.881V170.491L222.639 168.685V165.075L225.774 166.881ZM223.373 164.454V139.517L225.774 138.132V165.831L223.373 164.454ZM222.838 164.026L222.743 164.087L201.777 151.985L222.84 139.827L222.838 164.026ZM160.671 172.609L161.995 173.371V203.122C161.995 203.208 162.045 203.276 162.108 203.326L159.598 204.777V173.229L160.671 172.609ZM159.598 172.609V171.992L160.135 172.302L159.598 172.609ZM162.723 203.586V207.196L159.598 209.002V205.397L162.723 203.586ZM162.835 180.71C162.835 180.721 162.825 180.73 162.825 180.74V181.444C162.806 181.433 162.78 181.433 162.763 181.419C162.73 181.404 162.711 181.39 162.673 181.385C162.66 181.379 162.653 181.369 162.634 181.369C162.61 181.369 162.595 181.388 162.572 181.393C162.556 181.399 162.543 181.393 162.532 181.399V173.684L162.823 173.853V180.684C162.825 180.695 162.835 180.7 162.835 180.71ZM162.673 182.059L162.685 182.048L162.771 182.003C162.783 181.993 162.787 181.979 162.796 181.974C162.802 181.964 162.815 181.964 162.825 181.958V183.958C162.806 183.943 162.775 183.943 162.756 183.929C162.723 183.913 162.7 183.899 162.669 183.889C162.657 183.889 162.652 183.879 162.636 183.879C162.612 183.879 162.591 183.903 162.569 183.908C162.553 183.913 162.544 183.908 162.534 183.918V182.1C162.581 182.104 162.629 182.094 162.673 182.059ZM162.603 184.589C162.627 184.584 162.655 184.584 162.678 184.57L162.77 184.518C162.782 184.513 162.785 184.499 162.794 184.494C162.801 184.483 162.813 184.489 162.823 184.478V184.717L162.532 184.886V184.624C162.558 184.62 162.579 184.598 162.603 184.589ZM164.82 179.09L163.416 179.904V174.106C163.444 174.1 163.471 174.1 163.497 174.087L164.82 173.324V179.09ZM164.945 128.671C164.946 128.706 164.967 128.728 164.983 128.763C165.002 128.792 165.017 128.815 165.045 128.839C165.056 128.85 165.056 128.858 165.064 128.869L165.432 129.082C165.477 129.106 165.523 129.116 165.568 129.116C165.615 129.116 165.66 129.106 165.702 129.082L187.688 116.384C187.7 116.373 187.7 116.364 187.712 116.354C187.74 116.33 187.757 116.304 187.775 116.278C187.79 116.243 187.804 116.221 187.809 116.186C187.815 116.17 187.825 116.167 187.825 116.151V92.4513C187.825 92.4357 187.815 92.4287 187.813 92.4183C187.808 92.3906 187.802 92.3733 187.79 92.3542C187.789 92.3421 187.796 92.3265 187.789 92.3161C187.782 92.3039 187.77 92.3005 187.761 92.2935C187.745 92.2745 187.731 92.2589 187.711 92.2433C187.7 92.2364 187.7 92.2242 187.692 92.2138L187.331 92.0007C187.315 91.9903 187.303 92.0007 187.291 91.9955C187.253 91.9799 187.229 91.9799 187.189 91.9799C187.154 91.9799 187.13 91.9799 187.097 91.9903C187.081 91.9972 187.068 91.9903 187.055 91.9972L167.396 103.352L180.688 80.3251L210.011 97.2503V105.5L145.678 142.642V140.976L164.933 107.628V128.638C164.934 128.652 164.943 128.656 164.947 128.671L164.945 128.671ZM165.835 128.385V106.064L166.496 104.922L187.284 92.9171V115.998L165.835 128.385ZM215.504 103.626L212.243 101.742L211.88 101.529C211.754 101.454 211.589 101.494 211.513 101.623C211.44 101.753 211.484 101.916 211.61 101.99L211.839 102.122V104.865L210.912 105.397V97.7803L211.612 98.1824L215.504 100.43L215.504 103.626ZM219.901 97.7665V101.392L216.04 103.626V100.278C216.04 100.266 216.028 100.259 216.023 100.245C216.023 100.21 216.004 100.186 215.988 100.155C215.969 100.122 215.953 100.096 215.926 100.073C215.915 100.068 215.915 100.054 215.903 100.046L211.879 97.7145H211.874L210.773 97.0854L210.418 96.8688C210.413 96.867 210.413 96.8688 210.413 96.867L180.857 79.8101V79.5449C180.857 79.3942 180.74 79.2763 180.591 79.2763C180.442 79.2763 180.321 79.3959 180.321 79.5449V79.8985L166.432 103.961V103.962L166.07 104.597L165.34 105.863L164.969 106.498L145.174 140.778C145.162 140.798 145.172 140.824 145.167 140.841C145.16 140.865 145.138 140.881 145.138 140.908V144.56L141.609 146.602L141.344 146.752L141.273 146.791V143.385L180.685 75.1219L219.901 97.7665ZM174.509 70.5082L194.615 68.7041V82.1198L180.724 74.0974L174.509 70.5082ZM195.516 82.6418V68.6209L196.443 68.5411V83.1752L195.516 82.6418ZM200.112 69.6L198.036 68.4008L200.112 68.217V69.6ZM204.512 67.3696L200.649 69.6V67.9207C200.649 67.9137 200.643 67.9137 200.643 67.9051C200.643 67.9033 200.648 67.8999 200.648 67.8947C200.646 67.8669 200.623 67.8531 200.613 67.8323C200.596 67.7907 200.584 67.7525 200.551 67.7231C200.54 67.711 200.526 67.711 200.511 67.704C200.471 67.6815 200.435 67.652 200.379 67.652C200.374 67.652 200.369 67.6572 200.363 67.6572C200.363 67.6572 200.358 67.652 200.353 67.652L197.14 67.9397L196.686 67.9796L195.223 68.1113H195.221L194.856 68.146L173.702 70.0472L168.369 66.9692L204.509 63.7197L204.51 67.3696L204.512 67.3696ZM114.558 11.223L203.909 62.8175L166.922 66.1347L77.5707 14.549L114.558 11.223ZM21.6934 53.8398L52.4021 0.634803L76.5733 14.5829L166.732 66.6344L167.373 67.0018L173.512 70.5477L180.226 74.4264L140.912 142.525L120.484 130.728L124.244 124.217L125.486 124.926C125.528 124.95 125.573 124.966 125.62 124.966C125.71 124.966 125.776 124.914 125.826 124.844C125.831 124.834 125.845 124.839 125.85 124.829L127.311 122.291C127.327 122.272 127.316 122.246 127.323 122.224C127.33 122.201 127.351 122.184 127.351 122.161V121.387L141.749 96.4494L156.951 80.2607C157.054 80.1515 157.049 79.9817 156.938 79.8812C156.831 79.7772 156.663 79.7841 156.564 79.8968L141.339 96.1063L129.831 108.363L129.824 108.368C129.805 108.396 129.805 108.42 129.791 108.449C129.779 108.487 129.75 108.508 129.75 108.552V110.541L126.949 112.158H126.947L125.892 112.775V109.247L161.51 71.3074L157.162 78.8427C157.086 78.9727 157.129 79.1356 157.255 79.2084C157.3 79.2326 157.342 79.2465 157.392 79.2465C157.482 79.2465 157.574 79.1962 157.623 79.1096L163.125 69.5706H163.127L163.768 68.4753C163.78 68.4528 163.77 68.425 163.775 68.4008C163.786 68.3661 163.794 68.3419 163.791 68.3072C163.791 68.2951 163.801 68.2847 163.796 68.2725C163.791 68.2569 163.777 68.2483 163.768 68.2344C163.763 68.2275 163.756 68.2188 163.751 68.2119C163.735 68.1893 163.735 68.1599 163.718 68.1426C163.711 68.1356 163.695 68.1408 163.685 68.1322C163.678 68.127 163.678 68.1148 163.669 68.1079H163.664L73.5058 16.0431C73.4815 16.031 73.4555 16.0431 73.433 16.0362C73.3984 16.024 73.3706 16.0171 73.3308 16.0206C73.2961 16.0275 73.2753 16.0431 73.2441 16.0622C73.225 16.0743 73.1938 16.0726 73.1765 16.0951L35.2653 56.4603V56.462L35.2601 56.4637C35.2497 56.4741 35.2549 56.4863 35.2445 56.4967C35.2393 56.5071 35.2271 56.5071 35.2202 56.514C35.2098 56.5365 35.2202 56.5608 35.2133 56.5816C35.2063 56.6059 35.1838 56.6232 35.1838 56.6492V61.1742C35.1838 61.1863 35.1959 61.1967 35.2011 61.2088C35.2029 61.247 35.2202 61.2678 35.2358 61.2955C35.2549 61.3302 35.2705 61.3544 35.2982 61.377C35.3086 61.3874 35.3086 61.3995 35.3207 61.4064L43.2411 65.9802V77.2956C43.2411 77.3077 43.2567 77.3147 43.2567 77.3285C43.2619 77.3632 43.2758 77.3857 43.2966 77.4187C43.3139 77.4516 43.3261 77.4758 43.3555 77.4984C43.3625 77.5053 43.3677 77.5174 43.3781 77.5278L44.6103 78.2384L40.9101 84.6543L13.096 68.7288L21.6934 53.8398ZM21.657 78.0425L12.9953 73.0441V69.72L40.6848 85.7024V89.0265L23.4961 79.1082L23.1286 78.8898H23.1234V78.8846L21.657 78.0425ZM22.7194 79.273V81.9506L21.7922 81.4117V78.741L22.7194 79.273ZM23.6258 79.8016L40.8163 89.7252C40.8579 89.7477 40.903 89.7598 40.9498 89.7598C40.9966 89.7598 41.0416 89.7477 41.0832 89.7252L45.1074 87.3924L45.4731 87.1879C45.4852 87.1827 45.4852 87.1654 45.4956 87.1585C45.5251 87.1394 45.5407 87.1117 45.558 87.0822C45.5754 87.0493 45.5927 87.0268 45.5979 86.9921C45.5979 86.9765 45.6135 86.9696 45.6135 86.954V67.3526L48.7417 69.1619V89.9124C48.7417 89.9245 48.7539 89.9349 48.7591 89.9471C48.7643 89.9852 48.7747 90.0095 48.7937 90.0337C48.8128 90.0684 48.8284 90.0961 48.8526 90.1187C48.8648 90.1256 48.8648 90.1412 48.8769 90.1464L60.608 96.9212C60.6496 96.9455 60.6947 96.9559 60.7397 96.9559C60.79 96.9559 60.8316 96.9455 60.8766 96.9212L61.2389 96.7133C61.2545 96.7063 61.2545 96.6942 61.2614 96.6838C61.2943 96.6613 61.3064 96.6335 61.3238 96.6041C61.3411 96.5746 61.3567 96.5486 61.3619 96.514C61.3636 96.4984 61.3775 96.4914 61.3775 96.4758V76.4552L64.1383 78.0531L64.1401 98.8018C64.1401 98.814 64.1522 98.8244 64.1574 98.8365C64.1591 98.8746 64.1765 98.8989 64.1921 98.9266C64.2111 98.9613 64.2267 98.9855 64.2544 99.0081C64.2648 99.015 64.2648 99.0306 64.277 99.0375L76.005 105.812C76.0466 105.835 76.0916 105.847 76.1384 105.847C76.1852 105.847 76.2285 105.835 76.2719 105.812L76.6393 105.599C76.7693 105.525 76.8126 105.36 76.7381 105.234C76.674 105.114 76.5266 105.079 76.4053 105.131L76.4088 85.1297L123.882 112.544V123.776L119.883 130.696C119.871 130.715 119.878 130.741 119.873 130.764C119.866 130.783 119.845 130.803 119.845 130.826V135.193C119.845 135.209 119.857 135.218 119.863 135.233C119.864 135.268 119.878 135.29 119.897 135.32C119.916 135.355 119.932 135.377 119.956 135.401C119.968 135.407 119.968 135.42 119.98 135.431L139.268 146.563V153.136L23.6253 86.3813L23.6258 79.8016ZM35.7194 61.0254V57.5454L125.345 109.295V112.773L124.278 112.156L76.6364 84.6453L76.269 84.4374L74.8028 83.5881V83.5864L74.555 83.4443L72.4597 82.2398L72.3453 82.1722H72.3401V82.1705L72.0593 82.0162L70.1616 80.9157L70.1564 80.914V80.907L70.0316 80.8429L69.7682 80.6835H69.763L67.7578 79.524H67.7526V79.5223L67.7232 79.5102L67.5395 79.4027L67.1669 79.1895L67.1374 79.167C67.1322 79.1618 67.127 79.167 67.1253 79.1618C67.1235 79.1618 67.1235 79.1566 67.1183 79.1549L66.8428 78.9937H66.8376L66.6192 78.8776L66.3714 78.7303L66.004 78.5119C66.0022 78.5119 66.0022 78.5102 66.0022 78.5102L64.5395 77.6696H64.5378L61.2431 75.7598H61.2414L60.8792 75.5518L59.4182 74.7043L59.1669 74.5604V74.5587L57.0698 73.3507L56.9537 73.2866C56.952 73.2849 56.952 73.2866 56.952 73.2849L56.945 73.2797L56.6712 73.1254V73.1202L54.7648 72.0197H54.7596L54.6331 71.9521L54.3627 71.7961V71.7944L52.3731 70.6471L52.3437 70.6298C52.3419 70.628 52.3385 70.6298 52.3385 70.6298C52.3333 70.628 52.3333 70.6246 52.3333 70.6246L52.1461 70.5154L51.7561 70.2901H51.7509C51.7509 70.2901 51.7509 70.2884 51.7492 70.2884L51.7163 70.2693L51.4459 70.1151L51.2241 69.9851H51.2223L50.9711 69.8378L50.6002 69.6263L49.1392 68.7771H49.1374L45.4702 66.6627L45.1028 66.4496L43.6366 65.6003L35.7194 61.0254ZM125.567 108.374L35.8791 56.5887L73.4159 16.6149L163.104 68.4001L125.567 108.374ZM125.888 113.391L126.812 112.852V122.085L125.888 123.69V113.391ZM125.347 113.391V124.227L124.413 123.693V112.852L125.347 113.391ZM74.4004 101.3V101.963L67.2253 97.8248C67.2582 97.778 67.2842 97.7347 67.2842 97.6758V97.4852L67.286 97.1281C67.2877 97.1333 67.2929 97.1385 67.2981 97.1455C67.3172 97.1732 67.331 97.1975 67.3605 97.22C67.3709 97.2304 67.3726 97.2443 67.3848 97.2529L67.4593 97.298L74.4004 101.3ZM67.7852 96.8594V96.8195C67.7922 96.8317 67.7852 96.8473 67.7922 96.8594C67.7991 96.8698 67.8112 96.8663 67.8199 96.8767V96.8819L67.7852 96.8594ZM74.4004 92.3326V99.8542L68.5044 96.4487V88.9271L74.4004 92.3326ZM70.2964 88.5216V81.6065L71.6621 82.3968V89.3065L70.2964 88.5216ZM72.5945 89.8491V82.9323L74.1525 83.83V90.7504L72.5945 89.8491ZM69.3623 87.9809L67.8943 87.1334V80.2183L69.3623 81.0658V87.9809ZM74.5355 103.265C74.5771 103.287 74.6256 103.303 74.6689 103.303C74.759 103.303 74.8249 103.251 74.8751 103.182C74.8821 103.175 74.8942 103.177 74.8994 103.166C74.915 103.144 74.9046 103.121 74.9115 103.099C74.9185 103.076 74.9393 103.057 74.9393 103.031V102.61V102.603V100.567L74.941 100.359V84.2808L75.8682 84.818V105.109L64.6744 98.6446L64.6692 78.3586L65.5964 78.8924L65.6119 97.9547C65.6119 97.9669 65.6223 97.9738 65.6241 97.9877C65.6258 98.0154 65.631 98.0327 65.6414 98.0518C65.6466 98.0674 65.6414 98.0795 65.6466 98.0916C65.6518 98.0986 65.6657 98.0968 65.6743 98.1072C65.6917 98.1298 65.7073 98.1471 65.7263 98.1592C65.7367 98.1696 65.7367 98.1818 65.7454 98.1922L74.5355 103.265ZM50.2183 89.1038C50.2235 89.1264 50.2287 89.1437 50.2374 89.1627C50.2426 89.1783 50.2356 89.1905 50.2426 89.2009C50.2478 89.213 50.2616 89.2078 50.2668 89.2182C50.2824 89.2407 50.2998 89.2581 50.3188 89.2737C50.3292 89.2806 50.3292 89.2927 50.3414 89.3014L59.142 94.3845C59.1871 94.4071 59.2287 94.4227 59.2789 94.4227C59.3656 94.4227 59.4332 94.3707 59.4834 94.3013C59.4938 94.2909 59.5077 94.2944 59.5112 94.2857C59.5233 94.2632 59.5129 94.2407 59.5181 94.2181C59.5285 94.1939 59.5476 94.1766 59.5476 94.1506V75.4037L60.4765 75.9409V96.2251L49.2791 89.7626V69.4766L50.2081 70.0139V89.0762C50.2064 89.0814 50.2183 89.09 50.2183 89.1038ZM59.007 92.4105V93.0743L51.8337 88.9392C51.8666 88.8941 51.8961 88.8525 51.8961 88.7919V88.239C51.8961 88.2459 51.9013 88.2511 51.9065 88.2546C51.9221 88.2841 51.936 88.3101 51.9637 88.3309C51.9741 88.3413 51.9741 88.3551 51.9827 88.3603L52.059 88.4054C52.059 88.4071 52.059 88.4054 52.0607 88.4071V88.4088L59.007 92.4105ZM52.3901 87.9773V87.9357C52.3918 87.9357 52.3953 87.9409 52.397 87.9426C52.4022 87.9548 52.3953 87.9704 52.4022 87.9808L52.3901 87.9773ZM59.007 83.4452V90.9632L53.1057 87.5542V80.0411L59.007 83.4452ZM54.9065 79.6289V72.7174L56.2704 73.5042V80.4139L54.9065 79.6289ZM57.2011 80.9565V74.0414L58.7661 74.9409V81.8559L57.2011 80.9565ZM53.9637 79.0899L52.5027 78.2459V71.3309L53.9637 72.1732V79.0899ZM43.7783 66.2945L44.7055 66.8334V77.6759L43.7783 77.1386V66.2945ZM41.2168 89.0237V85.613L41.2411 85.5749L44.7073 79.5645V87.0031L41.2168 89.0237ZM120.381 135.041V131.717L140.736 143.466V146.79L139.669 146.173L120.381 135.041ZM127.346 120.31V112.541L130.147 110.925C130.157 110.915 130.159 110.903 130.171 110.896C130.199 110.873 130.216 110.844 130.228 110.816C130.247 110.783 130.261 110.759 130.268 110.726C130.268 110.71 130.284 110.707 130.284 110.691V108.65L140.138 98.1525L127.346 120.31ZM20.1198 55.4942L12.494 68.6952V68.6969C12.494 68.6969 12.4923 68.6969 12.4923 68.6986C12.4802 68.7177 12.4906 68.7402 12.4854 68.7628C12.4784 68.7853 12.4559 68.8026 12.4559 68.8269V73.1891C12.4559 73.2047 12.4715 73.2116 12.4715 73.2272C12.4784 73.2618 12.4906 73.2861 12.5114 73.3173C12.5269 73.3502 12.5443 73.3745 12.5685 73.397C12.5807 73.4074 12.5841 73.4196 12.5928 73.43L21.2546 78.4284V81.567C21.2546 81.5791 21.265 81.586 21.2702 81.5999C21.2754 81.6346 21.2893 81.6588 21.3101 81.6918C21.3274 81.7247 21.343 81.7489 21.3673 81.7715C21.3776 81.7767 21.3776 81.7905 21.3898 81.7992L22.5631 82.4751L18.9132 86.2758L0.7018 75.763L20.1198 55.4942ZM19.0904 91.357L21.4699 89.9774L139.269 157.992V197.586L10.427 123.192V86.5039L18.8221 91.3533C18.8672 91.3758 18.9088 91.3879 18.9555 91.3879C19.0041 91.3897 19.0474 91.3775 19.0925 91.355L19.0904 91.357ZM8.45959 84.7503L0.536066 80.1734V76.7176L18.6849 87.1975V90.6585L10.2915 85.8092L9.92582 85.5978L8.45959 84.7503ZM159.254 219.271L9.32918 132.716V127.411L159.197 213.94C159.216 213.95 159.237 213.95 159.254 213.955V219.272L159.254 219.271ZM142.608 198.7C142.62 198.689 142.62 198.675 142.63 198.67C142.66 198.646 142.672 198.62 142.689 198.594C142.707 198.559 142.722 198.537 142.728 198.502C142.729 198.486 142.743 198.478 142.743 198.467V198.206L156.138 190.471V202.543L155.535 202.888C155.523 202.894 155.523 202.907 155.511 202.918C155.493 202.933 155.478 202.947 155.464 202.968C155.459 202.973 155.441 202.978 155.434 202.987C155.429 203.003 155.434 203.011 155.429 203.022C155.419 203.046 155.414 203.067 155.414 203.089C155.408 203.105 155.396 203.108 155.396 203.124V207.318L141.547 199.318L142.608 198.7ZM141.273 198.852V159.152L142.201 159.686V198.31L141.273 198.852ZM143.681 185.381C143.686 185.416 143.7 185.443 143.719 185.473C143.738 185.502 143.757 185.53 143.778 185.549C143.793 185.559 143.793 185.573 143.802 185.579L144.169 185.792C144.211 185.816 144.256 185.826 144.303 185.826C144.35 185.826 144.395 185.816 144.436 185.792L156.131 179.036V189.849L142.736 197.584L142.74 159.994L144.499 161.014L143.804 161.41C143.793 161.421 143.793 161.435 143.78 161.44C143.762 161.455 143.75 161.469 143.729 161.49C143.724 161.501 143.71 161.501 143.7 161.514C143.695 161.525 143.7 161.539 143.698 161.549C143.688 161.568 143.686 161.589 143.681 161.611C143.676 161.627 143.665 161.636 143.665 161.651V185.346C143.665 185.36 143.676 185.371 143.681 185.381ZM151.934 168.915V176.437L146.038 179.842V172.317L151.934 168.915ZM148.785 169.295V163.48L150.147 164.271V168.506L148.785 169.295ZM152.979 177.286V177.281H152.984L153.059 177.236C153.071 177.231 153.071 177.217 153.081 177.206C153.111 177.187 153.123 177.156 153.144 177.13C153.145 177.12 153.151 177.114 153.154 177.111V177.66C153.154 177.718 153.189 177.763 153.213 177.808L146.038 181.951V181.291L152.979 177.286ZM152.627 176.868C152.629 176.863 152.629 176.858 152.629 176.853C152.639 176.847 152.648 176.847 152.653 176.837V176.853L152.627 176.868ZM152.544 167.121L151.078 167.965V164.809L152.544 165.659V167.121ZM147.847 169.832L146.294 170.733V162.998L147.119 162.518L147.847 162.941V169.832ZM145.636 162.475C145.625 162.485 145.625 162.494 145.612 162.504C145.587 162.529 145.57 162.555 145.553 162.581C145.535 162.615 145.52 162.638 145.514 162.672C145.509 162.688 145.499 162.697 145.499 162.707V183.015C145.499 183.045 145.518 183.06 145.528 183.083C145.534 183.102 145.523 183.128 145.539 183.145C145.544 183.161 145.554 183.156 145.563 183.164C145.613 183.232 145.677 183.28 145.769 183.28C145.816 183.28 145.859 183.27 145.903 183.246L154.705 178.164C154.716 178.159 154.717 178.145 154.724 178.14C154.748 178.121 154.762 178.105 154.776 178.083C154.783 178.073 154.8 178.073 154.804 178.067C154.811 178.052 154.804 178.043 154.809 178.027C154.816 178.008 154.821 177.988 154.825 177.97C154.826 177.955 154.842 177.946 154.842 177.936V166.979L155.393 167.3V170.955C155.393 170.971 155.405 170.974 155.41 170.99C155.416 171.029 155.426 171.047 155.449 171.081C155.466 171.111 155.482 171.139 155.508 171.158C155.518 171.168 155.518 171.182 155.532 171.187L155.768 171.324V178.626L144.575 185.09V162.01L145.405 161.53L146.334 162.069L145.636 162.475ZM158.71 171.348C158.716 171.388 158.735 171.411 158.75 171.44C158.769 171.47 158.783 171.497 158.807 171.516C158.818 171.527 158.823 171.541 158.83 171.546L159.06 171.683V172.61L156.535 171.149L156.534 171.144L156.168 170.939L155.929 170.802V167.61L158.696 169.208V171.315C158.698 171.328 158.71 171.338 158.71 171.348ZM159.06 173.23V204.776L156.553 203.326C156.617 203.276 156.672 203.21 156.672 203.121V171.841L159.06 173.23ZM155.93 203.587L159.06 205.398V209.003L155.93 207.197V203.587ZM159.468 171.298L159.234 171.161V169.049C159.234 169.033 159.223 169.03 159.222 169.014C159.216 168.979 159.199 168.952 159.183 168.922C159.164 168.893 159.149 168.865 159.121 168.846C159.111 168.836 159.111 168.822 159.097 168.816L155.795 166.914L154.707 166.283L154.345 166.075C154.34 166.07 154.34 166.064 154.34 166.064L154.086 165.917H154.085H154.083L153.875 165.801L153.599 165.636L153.56 165.617L153.166 165.388H153.161L152.979 165.281H152.974L152.941 165.265L150.946 164.106L150.676 163.952L150.554 163.879L148.648 162.778H148.646V162.773L148.367 162.619L148.253 162.557V162.551L147.256 161.979C147.255 161.974 147.251 161.979 147.251 161.979C147.251 161.979 147.251 161.974 147.249 161.974L147.007 161.842L145.541 160.993L145.173 160.78L142.61 159.295H142.608L141.147 158.451C141.125 158.435 141.1 158.446 141.08 158.44C141.055 158.435 141.04 158.411 141.015 158.411C141.003 158.411 140.993 158.421 140.977 158.427C140.943 158.432 140.92 158.446 140.886 158.466C140.856 158.485 140.834 158.501 140.809 158.529C140.799 158.534 140.79 158.539 140.785 158.548C140.769 158.567 140.78 158.598 140.773 158.615C140.766 158.64 140.745 158.655 140.745 158.683L140.742 199.319V199.742C140.742 199.752 140.752 199.761 140.757 199.771C140.762 199.806 140.776 199.828 140.795 199.863C140.813 199.892 140.828 199.92 140.854 199.939C140.865 199.95 140.87 199.958 140.877 199.969L159.062 210.471V213.241L9.19441 126.712L8.5982 126.367V85.447L9.5202 85.986V123.564C9.5202 123.575 9.5358 123.584 9.5358 123.594C9.54099 123.618 9.54619 123.639 9.55313 123.662C9.56006 123.672 9.55313 123.681 9.56006 123.696C9.56526 123.707 9.57912 123.707 9.58432 123.712C9.59992 123.736 9.61378 123.752 9.63631 123.769C9.64845 123.774 9.64845 123.788 9.65884 123.793L139.41 198.703C139.45 198.727 139.497 198.737 139.542 198.737C139.634 198.737 139.702 198.687 139.75 198.621C139.755 198.611 139.769 198.611 139.774 198.606C139.787 198.581 139.78 198.561 139.785 198.538C139.792 198.514 139.814 198.493 139.814 198.47V157.836C139.814 157.821 139.799 157.817 139.799 157.802C139.792 157.767 139.78 157.745 139.759 157.715C139.741 157.68 139.726 157.658 139.7 157.634C139.688 157.628 139.688 157.615 139.677 157.604L22.0025 89.6648L23.1186 89.0236C23.2451 88.949 23.2867 88.7844 23.2156 88.6561C23.1428 88.5296 22.9765 88.488 22.8534 88.5591L21.3387 89.4361L19.2243 90.6561V87.1501L22.7182 83.502V86.7394C22.7182 86.755 22.7286 86.7619 22.7338 86.7775C22.7355 86.8 22.7407 86.8191 22.7494 86.8364C22.7546 86.8486 22.7494 86.8642 22.7546 86.8746C22.7598 86.8849 22.7737 86.8815 22.7823 86.8901C22.7997 86.9127 22.8118 86.9317 22.8343 86.9473C22.8447 86.9543 22.8465 86.9699 22.8586 86.9751L139.411 154.267C139.451 154.291 139.498 154.301 139.543 154.301C139.635 154.301 139.702 154.251 139.751 154.185C139.756 154.175 139.77 154.18 139.775 154.17C139.787 154.145 139.78 154.119 139.785 154.102C139.792 154.078 139.815 154.057 139.815 154.034V146.875L140.881 147.492C140.926 147.516 140.967 147.527 141.018 147.527C141.063 147.527 141.108 147.516 141.151 147.492L141.437 147.327L163.104 169.949V173.394L162.406 172.987V172.98L160.813 172.063L159.468 171.298ZM175.923 209.955L159.792 219.272V213.749L175.923 204.432V209.955ZM183.807 214.196L176.463 209.955V204.645L179.776 206.553V208.489C179.742 208.473 179.709 208.473 179.674 208.478C179.641 208.478 179.615 208.478 179.587 208.489C179.572 208.494 179.558 208.489 179.542 208.499L179.175 208.712C179.164 208.717 179.164 208.731 179.152 208.736C179.133 208.755 179.119 208.771 179.106 208.788C179.095 208.799 179.086 208.799 179.076 208.807C179.071 208.823 179.076 208.832 179.071 208.842C179.06 208.866 179.055 208.887 179.052 208.91C179.052 208.92 179.041 208.929 179.041 208.944V209.362C179.041 209.378 179.052 209.386 179.052 209.397C179.062 209.437 179.076 209.459 179.092 209.483C179.111 209.518 179.126 209.546 179.154 209.565C179.164 209.575 179.164 209.589 179.177 209.594L183.806 212.268L183.804 214.196L183.807 214.196ZM180.043 205.674L176.549 203.652L198.369 191.055L198.6 191.192H198.605L201.858 193.076L180.043 205.674ZM201.395 194.383V196.298L180.313 208.478V206.553L201.395 194.383ZM205.43 202.016L184.343 214.19V212.27L205.43 200.09V202.016ZM202.998 197.537C203.04 197.561 203.085 197.577 203.131 197.577C203.182 197.577 203.225 197.561 203.27 197.537L203.495 197.4L205.892 198.785L184.072 211.386L180.211 209.159L201.66 196.766L202.998 197.537ZM229.616 178.95L201.929 194.936V194.071L202.527 193.726C202.537 193.715 202.537 193.707 202.546 193.696C202.575 193.672 202.591 193.646 202.605 193.62C202.622 193.585 202.638 193.563 202.643 193.528C202.645 193.513 202.658 193.509 202.658 193.494V193.071C202.658 193.055 202.646 193.052 202.643 193.036C202.643 193.012 202.632 192.991 202.625 192.969C202.624 192.963 202.627 192.949 202.624 192.934C202.613 192.923 202.601 192.923 202.594 192.915C202.579 192.896 202.565 192.88 202.544 192.865C202.534 192.854 202.534 192.84 202.525 192.835L199.268 190.956L229.613 173.433L229.612 178.95L229.616 178.95ZM230.166 169.735V172.49L229.755 172.738H229.753L198.742 190.644L198.508 190.512C198.492 190.502 198.48 190.507 198.468 190.502C198.435 190.492 198.411 190.492 198.376 190.486C198.336 190.486 198.307 190.486 198.269 190.502C198.258 190.507 198.246 190.502 198.234 190.507L175.877 203.415C175.866 203.426 175.861 203.434 175.854 203.445C175.835 203.46 175.821 203.474 175.808 203.495C175.797 203.505 175.783 203.505 175.778 203.514C175.771 203.53 175.778 203.538 175.771 203.554C175.764 203.578 175.759 203.594 175.754 203.616C175.754 203.627 175.738 203.635 175.738 203.651V203.916L159.593 213.239V210.469L230.166 169.735ZM229.433 165.076V168.686L226.308 170.492V166.882L229.433 165.076ZM226.308 165.833V137.825L228.708 136.44V164.454L226.308 165.833ZM234.204 132.655L228.842 135.742H228.84L225.908 137.437C225.908 137.437 225.906 137.437 225.906 137.442L222.974 139.137L201.104 151.754L178.993 164.527L178.989 164.525L177.712 165.269L176.241 166.113L175.879 166.321L175.324 166.636V166.641L174.229 167.272L173.861 167.485L173.636 167.622L173.4 167.764L173.171 167.88C173.171 167.88 173.17 167.886 173.166 167.891C173.166 167.891 173.166 167.886 173.161 167.891L172.768 168.125H172.762L172.672 168.175V168.18L172.301 168.393L172.272 168.409V168.414H172.262L172.163 168.471V168.477L172.012 168.558H172.01L170.064 169.679V169.685L170.014 169.714L168.776 170.426L168.735 170.445L168.645 170.497C168.639 170.497 168.639 170.503 168.634 170.503H168.629L168.475 170.6L166.548 171.711L166.506 171.73C166.504 171.735 166.504 171.74 166.499 171.745H166.482L165.244 172.458C165.237 172.463 165.237 172.468 165.237 172.468C165.227 172.478 165.222 172.473 165.218 172.478L165.194 172.494L165.114 172.539C165.113 172.539 165.113 172.544 165.113 172.544H165.102L164.951 172.636L163.629 173.399V170.007L234.199 129.26L234.196 132.655L234.204 132.655Z" fill="#001A23"/>
<path d="M109.27 159.228C109.289 159.258 109.304 159.285 109.332 159.31C109.343 159.315 109.344 159.329 109.351 159.339L116.32 163.356L128.783 170.557C128.824 170.576 128.873 170.592 128.916 170.592C128.963 170.592 129.01 170.576 129.05 170.552L129.422 170.339C129.433 170.334 129.433 170.32 129.441 170.309C129.471 170.29 129.486 170.259 129.5 170.233C129.516 170.205 129.533 170.176 129.538 170.141C129.54 170.126 129.554 170.122 129.554 170.107V156.567C129.554 156.552 129.542 156.543 129.538 156.533C129.538 156.509 129.528 156.488 129.523 156.47C129.517 156.455 129.524 156.446 129.517 156.431C129.512 156.42 129.495 156.415 129.488 156.411C129.472 156.392 129.459 156.377 129.438 156.361C129.427 156.351 129.427 156.337 129.415 156.332L109.989 145.117C109.977 145.112 109.965 145.117 109.954 145.112C109.92 145.096 109.892 145.101 109.857 145.096C109.818 145.096 109.79 145.096 109.755 145.112C109.745 145.117 109.733 145.112 109.72 145.117L109.353 145.325C109.341 145.33 109.341 145.344 109.329 145.355C109.31 145.37 109.294 145.384 109.279 145.405C109.268 145.41 109.256 145.415 109.251 145.424C109.244 145.439 109.251 145.448 109.249 145.458C109.237 145.483 109.232 145.498 109.227 145.526C109.225 145.536 109.211 145.545 109.211 145.561V159.105C109.211 159.12 109.223 159.124 109.227 159.139C109.24 159.169 109.256 159.199 109.27 159.228ZM109.755 146.027L128.647 156.937V169.859L116.587 162.89L109.755 158.944V146.027Z" fill="#001A23"/>
<path d="M176.049 54.3043C176.099 54.2939 176.14 54.2748 176.175 54.2419C176.192 54.2246 176.199 54.209 176.213 54.1899C176.225 54.1726 176.246 54.157 176.255 54.1379L176.57 53.0946C176.575 53.0773 176.563 53.0599 176.565 53.0426C176.567 53.0253 176.581 53.0131 176.581 52.9958C176.581 52.9837 176.57 52.9802 176.569 52.9715C176.569 52.9525 176.562 52.9386 176.556 52.9213C176.541 52.8936 176.527 52.8745 176.506 52.8537C176.491 52.8364 176.482 52.8156 176.461 52.8017C176.451 52.7965 176.451 52.7861 176.445 52.7826L164.643 45.9648C164.613 45.9492 164.586 45.963 164.556 45.9578C164.532 45.9509 164.509 45.9301 164.483 45.9301L164.397 45.9405C164.395 45.9232 164.386 45.9128 164.38 45.8954C164.373 45.8677 164.352 45.8504 164.334 45.8313C164.317 45.8122 164.31 45.7932 164.289 45.781C164.282 45.7741 164.282 45.7637 164.272 45.7585L152.47 38.9459C152.445 38.9286 152.412 38.939 152.383 38.9303C152.36 38.9286 152.338 38.9061 152.315 38.9078L152.23 38.9182V38.9165C152.229 38.8992 152.223 38.8836 152.215 38.8662C152.203 38.8385 152.185 38.8194 152.164 38.7986C152.147 38.7813 152.14 38.764 152.123 38.7518C152.112 38.7449 152.112 38.7328 152.104 38.7276L140.298 31.915C140.269 31.8977 140.241 31.9081 140.212 31.9029C140.187 31.8977 140.166 31.8786 140.139 31.8804L140.062 31.8873C140.062 31.8873 140.057 31.8873 140.057 31.8855C140.057 31.8682 140.05 31.8526 140.045 31.8353C140.033 31.8058 140.017 31.7885 139.998 31.7677C139.981 31.7486 139.974 31.733 139.953 31.7174C139.943 31.7122 139.943 31.7001 139.936 31.6949L128.177 24.9063C128.177 24.9063 128.172 24.9063 128.17 24.9046L128.132 24.882C128.108 24.8664 128.082 24.882 128.059 24.8716C128.03 24.8664 128.007 24.8422 127.972 24.8474L127.891 24.8578C127.886 24.8404 127.881 24.8283 127.872 24.8162C127.861 24.7833 127.848 24.7659 127.827 24.7469C127.811 24.7295 127.803 24.7087 127.782 24.6966C127.775 24.6914 127.775 24.6793 127.766 24.6741L115.962 17.8562C115.933 17.844 115.903 17.851 115.872 17.8492C115.85 17.844 115.827 17.825 115.805 17.825L94.6712 19.7227C94.6608 19.7227 94.6556 19.7296 94.6522 19.7296C94.6331 19.7348 94.6175 19.7452 94.6002 19.7487C94.5724 19.7591 94.5586 19.773 94.5378 19.7937C94.5152 19.8111 94.4962 19.818 94.4823 19.8405C94.4771 19.8509 94.4667 19.8509 94.4633 19.8579C94.4581 19.8648 94.4633 19.8769 94.4581 19.8873C94.4529 19.8995 94.4425 19.9047 94.439 19.9116L94.1201 20.9532C94.1132 20.9775 94.127 21 94.127 21.026C94.127 21.0641 94.1253 21.0901 94.1374 21.123C94.1478 21.1577 94.1721 21.175 94.1946 21.1993C94.2137 21.2184 94.2189 21.2496 94.2449 21.2582L99.5965 24.3535L99.5167 24.617C99.5098 24.6395 99.5237 24.662 99.5237 24.6846C99.5237 24.7227 99.5185 24.7487 99.5341 24.7868C99.5497 24.8197 99.5687 24.8388 99.5965 24.8631C99.6121 24.8804 99.6155 24.9081 99.6415 24.9203L100.375 25.3483C100.387 25.3587 100.399 25.3553 100.416 25.3605C100.423 25.3605 100.428 25.3726 100.435 25.3761C100.46 25.3813 100.482 25.3865 100.51 25.3865C100.591 25.3865 100.661 25.3362 100.714 25.2669C100.721 25.2565 100.737 25.2617 100.742 25.2513C100.744 25.2444 100.742 25.2288 100.744 25.2236C100.749 25.208 100.763 25.2045 100.768 25.1889L100.808 25.0451L106.045 28.071C106.058 28.0762 106.073 28.0762 106.085 28.0814C106.096 28.0866 106.097 28.0918 106.103 28.0935C106.13 28.1039 106.155 28.1091 106.179 28.1091C106.189 28.1091 106.194 28.1074 106.201 28.1074L106.288 28.1005C106.29 28.1161 106.295 28.1282 106.304 28.1455C106.316 28.1802 106.342 28.1975 106.363 28.2253C106.382 28.2443 106.387 28.2721 106.413 28.2842L111.759 31.3708L111.678 31.636C111.668 31.6637 111.688 31.688 111.688 31.7105C111.687 31.7486 111.683 31.7746 111.699 31.8093C111.709 31.8422 111.733 31.8613 111.756 31.8855C111.773 31.9046 111.78 31.9323 111.801 31.9445L112.531 32.3691C112.543 32.3795 112.558 32.376 112.572 32.3812C112.577 32.3829 112.579 32.3916 112.588 32.3933C112.617 32.4055 112.64 32.4055 112.668 32.4055C112.754 32.4055 112.822 32.3552 112.874 32.2893C112.881 32.279 112.893 32.2841 112.898 32.2738C112.905 32.2634 112.898 32.2547 112.903 32.246C112.91 32.2339 112.922 32.2287 112.926 32.2183L112.978 32.0571L118.217 35.09C118.233 35.0969 118.247 35.0952 118.262 35.1021C118.273 35.1021 118.273 35.1125 118.281 35.1143C118.306 35.1212 118.332 35.1264 118.354 35.1264C118.364 35.1264 118.373 35.1247 118.378 35.1247L118.46 35.1143C118.465 35.1333 118.47 35.1472 118.477 35.1611C118.489 35.1957 118.515 35.2131 118.534 35.2408C118.557 35.2599 118.559 35.2876 118.581 35.298L123.931 38.3881L123.852 38.6567C123.841 38.6844 123.857 38.7069 123.857 38.7295C123.857 38.7693 123.852 38.7971 123.867 38.8283C123.883 38.8664 123.907 38.8855 123.93 38.908C123.945 38.9271 123.949 38.9548 123.975 38.9669L124.708 39.3863C124.72 39.3932 124.737 39.3933 124.748 39.3984C124.758 39.4002 124.758 39.4088 124.765 39.4106C124.793 39.421 124.817 39.4227 124.845 39.4227C124.931 39.4227 124.999 39.3707 125.051 39.3014C125.058 39.2945 125.073 39.2997 125.079 39.2893C125.084 39.2789 125.079 39.2702 125.084 39.2598C125.089 39.2494 125.099 39.2425 125.103 39.2321L125.148 39.0778L130.392 42.1038C130.404 42.1142 130.416 42.1107 130.432 42.1159C130.437 42.1159 130.442 42.1281 130.449 42.1315C130.477 42.1367 130.501 42.1419 130.524 42.1419C130.531 42.1419 130.539 42.1402 130.543 42.1402L130.635 42.135C130.636 42.1523 130.645 42.1645 130.65 42.1818C130.666 42.2147 130.688 42.2338 130.709 42.258C130.727 42.2754 130.734 42.3048 130.756 42.317L136.108 45.4053L136.026 45.6791C136.016 45.7069 136.031 45.7294 136.031 45.7519C136.031 45.7901 136.031 45.8195 136.042 45.8507C136.057 45.8854 136.08 45.9027 136.099 45.927C136.118 45.946 136.123 45.9772 136.149 45.9859L136.882 46.4053C136.898 46.4105 136.91 46.4105 136.922 46.4157C136.929 46.4174 136.933 46.4278 136.939 46.4313C136.967 46.4365 136.991 46.4417 137.016 46.4417C137.102 46.4417 137.172 46.3897 137.222 46.3221C137.232 46.3117 137.246 46.3169 137.251 46.3048C137.257 46.2979 137.251 46.2875 137.251 46.2805C137.258 46.2701 137.271 46.2632 137.276 46.2528L137.321 46.102L142.56 49.128C142.576 49.1349 142.588 49.1349 142.6 49.1401C142.61 49.1401 142.61 49.1471 142.619 49.1523C142.643 49.1627 142.671 49.1627 142.695 49.1627H142.72L142.81 49.1557C142.811 49.1748 142.817 49.1887 142.827 49.2077C142.843 49.2406 142.862 49.2597 142.889 49.284C142.905 49.3013 142.908 49.329 142.934 49.3394L148.281 52.4278L148.2 52.6929C148.189 52.7207 148.207 52.7432 148.207 52.7675C148.207 52.8056 148.205 52.8299 148.219 52.8663C148.229 52.8992 148.253 52.9182 148.276 52.9425C148.295 52.9598 148.3 52.9893 148.321 52.9997L149.054 53.4226C149.064 53.4295 149.082 53.4278 149.094 53.4347C149.099 53.4364 149.101 53.4451 149.11 53.4468C149.139 53.4538 149.162 53.459 149.189 53.459C149.276 53.459 149.345 53.407 149.395 53.3394C149.402 53.329 149.415 53.3342 149.42 53.3221C149.425 53.3151 149.42 53.3065 149.425 53.2978C149.43 53.2857 149.444 53.2822 149.447 53.2683L149.493 53.1193L154.732 56.1505C154.744 56.1557 154.761 56.1557 154.777 56.1609C154.784 56.166 154.784 56.1712 154.794 56.173C154.818 56.1834 154.846 56.1886 154.869 56.1886C154.876 56.1886 154.886 56.1868 154.893 56.1868L176.026 54.2891C176.03 54.3238 176.039 54.3099 176.049 54.3047L176.049 54.3043ZM106.024 27.4467L100.785 24.4207L100.057 24.0013V23.9996L94.7052 20.9095L94.8595 20.3983L106.182 26.9406L106.024 27.4467ZM96.0968 20.3253L115.797 18.5558L126.242 24.5835L106.535 26.3496L96.0968 20.3253ZM118.197 34.4709L112.959 31.4397H112.954L112.216 31.0221L106.875 27.9389L106.89 27.8938C106.89 27.8938 106.888 27.8921 106.89 27.8886V27.8834L107.027 27.4241L118.354 33.9581L118.197 34.4709ZM108.261 27.3495L127.963 25.58L138.401 31.6131L118.703 33.3774L108.261 27.3495ZM130.361 41.4969L125.122 38.4709L124.389 38.0515L119.042 34.9579L119.052 34.9128V34.9111L119.195 34.4466L130.518 40.9837L130.361 41.4969ZM120.438 34.3706L140.136 32.6063L150.574 38.6394L130.876 40.4054L120.438 34.3706ZM142.529 48.5228L137.29 45.4986L136.557 45.0723H136.555V45.0705L131.208 41.9874L131.221 41.9423V41.9406L131.363 41.4726L142.685 48.0115L142.529 48.5228ZM132.599 41.3948L152.3 39.6288L162.742 45.6583L143.042 47.4243L132.599 41.3948ZM154.702 55.5488L149.463 52.5177H149.461L148.732 52.0982L143.38 49.0099L143.396 48.9579V48.9562L143.538 48.5021L154.862 55.0445L154.702 55.5488ZM144.768 48.4257L164.475 46.6596L174.913 52.6891L155.208 54.4552L144.768 48.4257ZM175.79 53.8016L155.231 55.6509L155.378 55.1656L175.938 53.3163L175.79 53.8016Z" fill="#001A23"/>
<path d="M127.452 168.048C127.542 168.048 127.606 167.996 127.657 167.927C127.667 167.917 127.681 167.922 127.686 167.911C127.696 167.892 127.686 167.866 127.693 167.844C127.7 167.821 127.721 167.804 127.721 167.776V157.622C127.721 157.606 127.709 157.603 127.705 157.587C127.7 157.553 127.686 157.53 127.667 157.501C127.65 157.466 127.634 157.438 127.608 157.419C127.598 157.414 127.598 157.4 127.586 157.39L119.833 152.915L113.444 149.228L113.437 149.218H113.43L113.424 149.216H113.423C113.418 149.211 113.412 149.216 113.412 149.211C113.405 149.206 113.405 149.196 113.397 149.196L113.208 149.088L112.728 148.813V148.807L112.256 148.542L112.223 148.518C112.218 148.513 112.213 148.518 112.211 148.513C112.206 148.513 112.204 148.502 112.201 148.502L111.925 148.348H111.924L111.719 148.227H111.714C111.709 148.227 111.709 148.222 111.709 148.222L111.463 148.081C111.457 148.081 111.457 148.076 111.452 148.071L111.09 147.866C111.067 147.851 111.043 147.861 111.022 147.856C111 147.845 110.981 147.826 110.958 147.826C110.946 147.826 110.936 147.842 110.924 147.845C110.884 147.845 110.861 147.861 110.83 147.88C110.802 147.899 110.775 147.915 110.756 147.943C110.749 147.953 110.731 147.953 110.726 147.962C110.71 147.986 110.724 148.012 110.716 148.029C110.71 148.053 110.691 148.069 110.691 148.097V158.244C110.691 158.26 110.702 158.268 110.704 158.284C110.705 158.303 110.71 158.329 110.721 158.346C110.726 158.357 110.719 158.37 110.726 158.381C110.731 158.391 110.745 158.386 110.75 158.396C110.768 158.416 110.78 158.436 110.802 158.454C110.813 158.459 110.814 158.473 110.827 158.483L127.317 168.008C127.36 168.033 127.404 168.048 127.452 168.048ZM112.866 157.078C112.868 157.083 112.872 157.083 112.877 157.088L112.866 157.083V157.078ZM119.433 162.045V162.233L112.315 158.124C112.348 158.079 112.374 158.038 112.374 157.982V157.545C112.393 157.585 112.409 157.613 112.442 157.637C112.452 157.642 112.452 157.656 112.461 157.662L119.433 161.689L119.433 162.045ZM119.433 160.05L113.562 156.658V149.918L119.433 153.305V160.05ZM120.688 154.284L126.957 157.904V165.091L120.688 161.471V154.284ZM119.969 161.873C119.976 161.888 119.988 161.892 119.998 161.902L119.969 161.887V161.873ZM127.182 166.707L119.899 162.5C119.906 162.495 119.906 162.481 119.912 162.471L127.182 166.667L127.182 166.707Z" fill="#001A23"/>
<path d="M176.056 100.788C176.051 100.772 176.037 100.772 176.027 100.764C176.008 100.734 175.977 100.722 175.947 100.705C175.92 100.686 175.895 100.67 175.857 100.665C175.845 100.663 175.838 100.653 175.822 100.653C175.798 100.653 175.777 100.67 175.76 100.68C175.736 100.686 175.71 100.675 175.691 100.687L175.329 100.894L175.075 101.037C175.075 101.037 175.074 101.039 175.074 101.043H175.072L174.855 101.169L174.587 101.323L174.568 101.334C174.562 101.335 174.562 101.341 174.557 101.344C174.556 101.344 174.55 101.342 174.55 101.342L166.901 105.762C166.89 105.769 166.888 105.781 166.876 105.791C166.849 105.814 166.831 105.841 166.819 105.873C166.8 105.902 166.784 105.925 166.779 105.959C166.778 105.971 166.764 105.982 166.764 105.994V126.307C166.764 126.332 166.783 126.353 166.793 126.375C166.798 126.394 166.788 126.42 166.804 126.443C166.809 126.453 166.821 126.448 166.828 126.453C166.878 126.526 166.944 126.574 167.036 126.574C167.081 126.574 167.126 126.564 167.167 126.54L175.961 121.464C175.971 121.453 175.971 121.439 175.98 121.429C175.999 121.413 176.015 121.4 176.032 121.379C176.037 121.368 176.051 121.368 176.056 121.36C176.063 121.349 176.056 121.335 176.062 121.325C176.072 121.301 176.077 121.28 176.079 121.257C176.081 121.247 176.091 121.238 176.091 121.223V100.916C176.091 100.892 176.075 100.876 176.067 100.854C176.062 100.833 176.072 100.81 176.056 100.788ZM173.883 120.153C173.888 120.143 173.902 120.148 173.907 120.138C173.914 120.122 173.907 120.113 173.913 120.098V120.138L173.878 120.162C173.878 120.162 173.881 120.153 173.883 120.153ZM172.341 103.515L173.814 102.671V110.401L172.341 111.25V103.515ZM170.037 104.85L171.408 104.065V111.795L170.037 112.585V104.85ZM167.547 106.292L169.11 105.392V113.119L167.547 114.02V106.292ZM167.301 115.605L173.202 112.203V119.725L167.301 123.127V115.605ZM167.301 125.233V124.572L174.247 120.565L174.315 120.526C174.325 120.515 174.33 120.507 174.337 120.496C174.37 120.477 174.382 120.446 174.399 120.42C174.401 120.415 174.406 120.409 174.412 120.401V120.948C174.412 121.006 174.441 121.056 174.469 121.096L167.301 125.233Z" fill="#001A23"/>
<path d="M21.6544 106.884C21.6544 106.906 21.6596 106.925 21.67 106.946C21.6769 106.957 21.67 106.97 21.6769 106.984C21.6838 106.995 21.6959 106.99 21.6994 106.996C21.7185 107.019 21.7341 107.038 21.7514 107.054C21.7618 107.061 21.7635 107.076 21.7757 107.081L33.8555 114.054C33.8971 114.078 33.9456 114.088 33.9889 114.088C34.0808 114.088 34.1484 114.038 34.1969 113.967C34.2021 113.962 34.216 113.962 34.2212 113.957C34.2316 113.932 34.2229 113.906 34.2316 113.889C34.2368 113.865 34.261 113.844 34.261 113.821V103.673C34.261 103.657 34.2454 103.65 34.2437 103.634C34.2368 103.6 34.2246 103.575 34.2056 103.544C34.1865 103.511 34.1709 103.487 34.1432 103.465C34.1328 103.458 34.1328 103.442 34.1241 103.435L28.5711 100.231L24.3753 97.8129L24.3684 97.806H24.3615L24.3597 97.8043H24.358L24.3511 97.8025C24.3459 97.8025 24.3459 97.7904 24.3355 97.7869L24.1518 97.6829L23.6613 97.3987L23.1743 97.1128C23.1743 97.111 23.1691 97.1128 23.1691 97.1128C23.1639 97.111 23.1639 97.1076 23.1639 97.1076L23.1292 97.0902L22.8641 96.9308H22.8589V96.929L22.6457 96.8095L22.4031 96.6708L22.0356 96.4576C22.0166 96.4455 21.9906 96.4559 21.968 96.4472C21.9438 96.442 21.9282 96.423 21.9057 96.423C21.8901 96.423 21.8814 96.4351 21.8675 96.4351C21.8294 96.4403 21.8086 96.4576 21.7774 96.475C21.7428 96.4923 21.7202 96.5079 21.6977 96.5339C21.6908 96.5443 21.6752 96.5443 21.6682 96.5564C21.6561 96.579 21.6665 96.6067 21.6561 96.6257C21.6544 96.6483 21.6318 96.6656 21.6318 96.6881L21.6422 106.846C21.6388 106.862 21.6509 106.87 21.6544 106.884ZM29.4204 101.598L33.4949 103.948V111.14L29.4204 108.785V101.598ZM28.7046 109.158C28.715 109.173 28.7046 109.185 28.715 109.199C28.7202 109.206 28.7306 109.201 28.7393 109.211C28.741 109.217 28.741 109.222 28.7445 109.224L28.7046 109.201V109.158ZM24.4914 98.4994L28.1656 100.619V107.362L24.4914 105.243V98.4994ZM23.793 105.657C23.7982 105.662 23.8034 105.662 23.8086 105.664C23.8086 105.664 23.8103 105.674 23.8138 105.674L23.7948 105.664L23.793 105.657ZM23.306 106.558V106.13C23.3233 106.17 23.3476 106.2 23.3805 106.222C23.3857 106.227 23.3857 106.234 23.3927 106.239L28.1657 109V109.548L23.2454 106.704C23.2731 106.661 23.306 106.615 23.306 106.558Z" fill="#001A23"/>
<path d="M59.499 118.14C59.4817 118.11 59.4661 118.082 59.4401 118.063C59.428 118.053 59.428 118.039 59.4158 118.029L53.8597 114.836L49.6691 112.408L49.6414 112.389H49.6293C49.6276 112.384 49.6276 112.379 49.6224 112.379L49.4317 112.277L48.9551 111.996L48.4681 111.71H48.4664C48.4612 111.71 48.4612 111.705 48.4612 111.705L48.4282 111.689L48.1492 111.535L47.9447 111.414H47.943L47.6865 111.259H47.6847C47.6847 111.259 47.6847 111.254 47.683 111.254L47.3156 111.05C47.2931 111.034 47.2705 111.044 47.2515 111.039C47.2237 111.032 47.2099 111.011 47.1874 111.011C47.1718 111.011 47.1648 111.024 47.1527 111.027C47.1146 111.032 47.0903 111.046 47.0591 111.067C47.0296 111.083 47.0036 111.096 46.9846 111.124C46.9742 111.134 46.9603 111.134 46.9499 111.148C46.9395 111.167 46.9499 111.193 46.9447 111.216C46.9395 111.238 46.917 111.256 46.917 111.278V121.439C46.917 121.45 46.9291 121.458 46.9343 121.469C46.9343 121.498 46.9395 121.514 46.9499 121.536C46.9551 121.552 46.9499 121.561 46.9551 121.576C46.9603 121.581 46.9742 121.581 46.9794 121.592C46.995 121.611 47.0123 121.626 47.0314 121.644C47.0435 121.649 47.0435 121.663 47.0556 121.673L59.1559 128.652C59.2009 128.676 59.2425 128.692 59.2928 128.692C59.3794 128.692 59.447 128.64 59.4973 128.571C59.5077 128.56 59.5216 128.566 59.525 128.555C59.5372 128.536 59.5268 128.505 59.532 128.488C59.5424 128.463 59.5614 128.448 59.5614 128.42V118.266C59.5614 118.25 59.5493 118.241 59.5458 118.231C59.532 118.196 59.5164 118.167 59.499 118.139L59.499 118.14ZM49.0883 120.264H49.0935L49.0952 120.27L49.0883 120.264ZM53.4557 123.958V124.147L48.5389 121.306C48.5684 121.261 48.5944 121.219 48.5944 121.164V120.732C48.6169 120.772 48.636 120.8 48.6637 120.824C48.6741 120.829 48.6741 120.843 48.6828 120.849L53.454 123.599V123.958L53.4557 123.958ZM53.4557 121.97L49.7902 119.849V113.098L53.4557 115.219V121.97ZM53.9947 123.764L53.9964 123.769C54.0033 123.784 53.9947 123.793 54.0033 123.809L53.9929 123.803L53.9947 123.764ZM54.0085 123.809C54.0085 123.809 54.0189 123.814 54.0276 123.824L54.0085 123.809ZM58.7833 125.738L54.714 123.394V116.199L58.7833 118.547V125.738Z" fill="#001A23"/>
</svg>
