<svg width="131" height="220" viewBox="0 0 131 220" fill="none" xmlns="http://www.w3.org/2000/svg">
<path d="M1.46246 167.285L1.662 167.135L2.13743 166.786C2.14784 166.776 2.14957 166.771 2.15651 166.762C2.16345 166.757 2.17213 166.757 2.17907 166.752L2.45496 166.51C2.46016 166.5 2.47058 166.486 2.47752 166.481C2.48446 166.47 2.49487 166.465 2.50528 166.462L2.76728 166.172C2.76728 166.166 2.76728 166.166 2.76901 166.161C2.77596 166.156 2.77943 166.156 2.78116 166.156L3.01194 165.881L3.01367 165.876L52.0354 107.591L50.6473 171.03L48.8843 215.114C48.8843 215.148 48.9017 215.171 48.9017 215.2C48.9034 215.224 48.8965 215.25 48.9034 215.276L49.1516 216.367C49.1568 216.377 49.1585 216.383 49.162 216.391C49.1793 216.459 49.2088 216.523 49.247 216.574C49.2522 216.585 49.2522 216.585 49.2574 216.593L49.9966 217.619C50.0087 217.638 50.0313 217.643 50.0469 217.664C50.0747 217.688 50.0938 217.721 50.1267 217.75L51.3066 218.629C51.3188 218.639 51.3309 218.634 51.3448 218.639C51.3743 218.658 51.3951 218.684 51.4263 218.696L52.9533 219.372C52.9689 219.377 52.9914 219.377 53.0088 219.387C53.0313 219.392 53.0435 219.403 53.0608 219.411L54.8446 219.833C54.8741 219.843 54.8966 219.843 54.9192 219.843C54.9244 219.843 54.9313 219.848 54.9383 219.848L56.8556 219.995C56.8712 220 56.8851 220 56.9007 220H56.9024C56.9215 220 56.9354 220 56.9476 219.995L58.8562 219.852C58.8666 219.852 58.8719 219.846 58.8753 219.846C58.9048 219.841 58.9274 219.841 58.9517 219.836L60.7371 219.415C60.7545 219.404 60.7701 219.396 60.7892 219.39C60.8083 219.38 60.8222 219.38 60.8412 219.375L62.3768 218.7C62.4115 218.684 62.4289 218.655 62.4619 218.643C62.4688 218.633 62.4862 218.638 62.4966 218.633L63.6712 217.754C63.7042 217.724 63.7233 217.691 63.7476 217.667C63.7632 217.648 63.7892 217.643 63.7996 217.622L64.5336 216.597C64.5405 216.586 64.5405 216.581 64.5405 216.578C64.5856 216.521 64.6151 216.457 64.6325 216.379V216.369L64.8858 215.278C64.8928 215.248 64.8858 215.226 64.8928 215.202C64.8928 215.172 64.9049 215.15 64.9032 215.115L63.142 171.032L61.5179 96.5507L62.0107 96.0293V96.0241L62.9738 95.0433C62.979 95.033 62.979 95.0243 62.9859 95.014C62.9928 95.0088 63.0015 95.0036 63.005 94.9984L64.4209 93.2476H64.4712C64.5441 93.2476 64.6204 93.2286 64.6881 93.2027H64.6933L64.7974 93.163L65.0559 93.1786H65.0889C65.1687 93.1786 65.2433 93.1596 65.3232 93.1285C65.396 93.0991 65.4568 93.056 65.514 93.0024C65.5158 93.0024 65.5192 93.0024 65.5192 92.9973L65.6511 92.866C65.6615 92.8557 65.6615 92.847 65.6702 92.8367C65.6754 92.8315 65.6875 92.8263 65.6945 92.8211L66.1595 92.2427L66.595 92.203C66.595 92.203 66.595 92.1978 66.602 92.1978H66.6037L67.0722 92.1477C67.0826 92.1426 67.0913 92.1374 67.1017 92.1374C67.1243 92.1322 67.1468 92.1322 67.1659 92.127L67.6205 92.0061C67.6326 92.001 67.643 91.9872 67.6587 91.9872C67.676 91.982 67.683 91.982 67.6986 91.9768L68.3059 91.7195C68.3076 91.7195 68.3111 91.7143 68.3111 91.7143C68.318 91.7143 68.318 91.7143 68.3232 91.7092L68.672 91.5451C68.6998 91.5348 68.7136 91.521 68.7362 91.5002C68.7466 91.4951 68.764 91.4951 68.7744 91.4899L69.0832 91.2671H69.085L69.5205 90.9529C69.5361 90.9373 69.5483 90.9235 69.5604 90.908C69.576 90.8925 69.5934 90.8925 69.6055 90.8786L69.9595 90.5074L75.6092 91.0047L75.9649 91.0392H75.9667L129.239 95.7773L130.192 95.8636H130.244H130.246C130.336 95.8636 130.418 95.8395 130.499 95.8066C130.506 95.8066 130.511 95.8066 130.518 95.8015L130.574 95.7721C130.654 95.7324 130.718 95.6754 130.765 95.6133C130.772 95.6081 130.782 95.6081 130.787 95.5977L130.834 95.5356C130.841 95.5304 130.841 95.5252 130.844 95.52C130.883 95.4682 130.909 95.4043 130.929 95.337C130.931 95.337 130.94 95.3266 130.94 95.3214C130.942 95.3111 130.95 95.3025 130.95 95.2973L130.968 95.2161C130.973 95.2058 130.968 95.1971 130.968 95.1919C130.973 95.1868 130.975 95.1816 130.975 95.173L130.999 95.0227C131.001 94.9882 130.997 94.9606 130.997 94.926C130.997 94.8967 131.002 94.8742 130.999 94.8397L130.975 94.686V94.6757C130.973 94.6705 130.975 94.6653 130.975 94.6653L130.733 93.36V93.3548L130.596 92.6192C130.591 92.6089 130.584 92.6037 130.584 92.595C130.579 92.5795 130.584 92.5709 130.579 92.5553L130.392 91.9372C130.39 91.9217 130.376 91.913 130.367 91.8923C130.362 91.8768 130.365 91.863 130.357 91.8474L130.15 91.4071C130.15 91.4019 130.145 91.3968 130.143 91.3881L130.142 91.383C130.136 91.3726 130.131 91.3726 130.124 91.364C130.123 91.3536 130.109 91.3398 130.102 91.3294C130.091 91.3139 130.09 91.3001 130.084 91.2845L129.845 90.9651V90.9599L129.843 90.9547C129.826 90.9306 129.802 90.9254 129.788 90.9047C129.75 90.8598 129.72 90.8235 129.671 90.7924L129.42 90.6336C129.39 90.618 129.361 90.618 129.333 90.6042C129.304 90.5939 129.281 90.5697 129.246 90.5645L75.9292 76.9895C75.9066 76.9843 75.8945 76.9895 75.8737 76.9895C75.8563 76.9843 75.8459 76.9739 75.8286 76.9739L75.4729 76.9446C75.4399 76.9446 75.4139 76.9549 75.3826 76.9549C75.3479 76.9601 75.3149 76.9497 75.275 76.9601L74.9263 77.0464C74.8933 77.0568 74.8742 77.0706 74.8499 77.081C74.8256 77.0913 74.7927 77.0965 74.7649 77.1103L74.4213 77.3141C74.4023 77.3244 74.3866 77.3434 74.371 77.359C74.3485 77.3745 74.3242 77.378 74.3068 77.3987L73.9754 77.7129C73.9633 77.7233 73.9598 77.7423 73.9459 77.7526C73.9355 77.7682 73.9181 77.7768 73.9077 77.7872L73.5885 78.2085C73.5867 78.2137 73.5867 78.224 73.5833 78.224C73.5781 78.2292 73.5763 78.2292 73.5729 78.2344L71.9505 80.5792L71.9332 80.5982V80.6034L69.6601 83.7269C69.6532 83.7217 69.6497 83.7217 69.641 83.7165L69.4502 83.6406L69.3287 83.5283L69.3322 83.2521C69.3322 83.2279 69.3217 83.2175 69.32 83.2003C69.32 83.1761 69.32 83.1502 69.3148 83.1243C69.3131 83.1243 69.3148 83.1139 69.3131 83.1088L69.2003 82.6408V82.6305V82.6253C69.1933 82.6063 69.1777 82.5856 69.1673 82.5631C69.1517 82.5131 69.1326 82.4613 69.1031 82.4164L69.1014 82.406H69.0944L68.9504 82.1988L69.1691 80.1648C69.1708 80.1406 69.1621 80.1147 69.1621 80.0923C69.1621 80.0698 69.1725 80.0474 69.1673 80.0249L68.9105 77.9253C68.9053 77.8908 68.8914 77.8683 68.8776 77.8338C68.8706 77.8044 68.8706 77.782 68.8585 77.7526L68.567 77.1086L68.56 75.8999V75.8947V75.8844L68.5479 75.4734V75.4683L68.5375 75.0521L68.5271 74.6067L68.5201 74.1508V73.2236L68.5097 2.12378V1.06362V1.05844V1.05326L68.5045 0.840885V0.718292C68.5045 0.694119 68.4976 0.673401 68.4923 0.656135C68.4923 0.637142 68.5028 0.626781 68.4976 0.606062C68.4923 0.56117 68.4698 0.52491 68.4559 0.485194C68.4559 0.480014 68.4542 0.474836 68.4542 0.474836C68.4212 0.383323 68.3744 0.30217 68.3032 0.233099C68.2963 0.222739 68.2963 0.208926 68.2807 0.198566C68.2755 0.193386 68.2633 0.188206 68.2564 0.183026C68.2373 0.164033 68.2113 0.153673 68.1974 0.138135C68.1471 0.103601 68.1054 0.0759776 68.0551 0.0621599C68.0482 0.0569798 68.0447 0.0517999 68.0377 0.0517999L67.9718 0.0293533C67.9371 0.0189935 67.9128 0.0189933 67.8798 0.0189933C67.8451 0.00863353 67.8122 0 67.7757 0H67.6855C67.656 0 67.63 0.0103603 67.6005 0.01554C67.5727 0.0207201 67.5432 0.0155399 67.5155 0.02072L67.4304 0.0448932V0.0500732H67.4287L67.1927 0.117411C67.1875 0.117411 67.1875 0.122591 67.1875 0.122591L65.9937 0.50073C65.9833 0.50073 65.9764 0.51109 65.966 0.51109C65.9556 0.516271 65.9469 0.51109 65.933 0.52145L65.2337 0.816711C65.2233 0.827072 65.2147 0.835705 65.2008 0.840885C65.1886 0.840885 65.1782 0.840884 65.1678 0.851245L64.5865 1.18622C64.5709 1.1914 64.564 1.20521 64.5484 1.22075C64.5293 1.23111 64.5102 1.23629 64.4963 1.24492L64.0677 1.60407C64.0625 1.60407 64.0608 1.61443 64.0573 1.61443C64.0382 1.6386 64.0157 1.65932 63.9983 1.67659C63.9931 1.68177 63.9879 1.68177 63.9862 1.69213L63.6877 2.053C63.6634 2.08753 63.653 2.11516 63.6374 2.14969C63.6183 2.17905 63.5975 2.19977 63.5871 2.22566L63.457 2.57445C63.4465 2.6038 63.45 2.62452 63.4465 2.64697C63.4396 2.67114 63.4292 2.69186 63.424 2.71431L63.3823 3.06309C63.3823 3.07345 63.3771 3.08208 63.3771 3.09762V3.11316L54.96 74.0406L54.5696 74.3255C54.5575 74.3359 54.5471 74.3548 54.5297 74.3704C54.5141 74.3807 54.4967 74.3894 54.4829 74.3997L52.6662 76.3129C52.6488 76.3284 52.6436 76.3422 52.6332 76.3578C52.6228 76.3733 52.6106 76.3733 52.6037 76.3871L51.0316 78.6698C51.0247 78.6853 51.0247 78.694 51.0126 78.7095C51.0056 78.725 50.99 78.7389 50.9848 78.7492L49.7858 81.2391C49.7806 81.258 49.7806 81.2736 49.7789 81.2891C49.7719 81.3047 49.7598 81.3133 49.7511 81.334L48.9946 83.8584C48.9877 83.8826 48.9894 83.9033 48.9877 83.9205C48.9859 83.9378 48.972 83.9551 48.972 83.9706L48.7135 86.369C48.7083 86.3879 48.7204 86.4138 48.7204 86.4363C48.7204 86.4587 48.7083 86.4812 48.7135 86.5088L48.972 88.6033C48.9772 88.643 48.9946 88.6758 49.0067 88.7103C49.0137 88.7345 49.0137 88.7604 49.0224 88.7777L49.7789 90.437C49.7806 90.437 49.7806 90.4421 49.7806 90.4421H49.7823C49.817 90.5147 49.8622 90.5837 49.9246 90.6355L51.1167 91.7475C51.1392 91.763 51.1618 91.7665 51.1757 91.782C51.1948 91.7976 51.2086 91.8166 51.2277 91.8321L51.9634 92.2534V93.4966C51.9634 93.5208 51.9703 93.5363 51.9703 93.5536C51.9756 93.5829 51.9686 93.6054 51.9756 93.6296L52.1196 94.2684C52.1213 94.284 52.13 94.2926 52.1352 94.3081C52.1577 94.3703 52.1768 94.4238 52.2115 94.4756C52.2133 94.4808 52.2133 94.4912 52.2185 94.4912L52.2948 94.5982L52.1977 99.0167L0.821682 164.543C0.819947 164.543 0.819947 164.548 0.814741 164.553C0.814741 164.553 0.813006 164.553 0.813006 164.558L0.578761 164.872C0.577025 164.878 0.577025 164.888 0.57182 164.891C0.566615 164.897 0.559674 164.902 0.556204 164.907L0.360132 165.226C0.354927 165.232 0.354927 165.237 0.354927 165.245C0.347986 165.251 0.33931 165.256 0.33931 165.261L0.190087 165.541C0.183147 165.556 0.183147 165.565 0.177941 165.58C0.172736 165.596 0.158854 165.605 0.153649 165.62L0.0616863 165.872C0.0547457 165.891 0.0599513 165.912 0.0547457 165.929C0.0495402 165.946 0.0391293 165.964 0.0373942 165.979L0.00269125 166.178C-0.00424935 166.218 0.0044264 166.25 0.0044264 166.285C0.0044264 166.319 -0.000779158 166.357 0.0044264 166.392L0.0339239 166.542C0.035659 166.558 0.0460702 166.571 0.0495403 166.582C0.0547459 166.597 0.0495402 166.611 0.0547457 166.622L0.0616863 166.651C0.0668919 166.656 0.0738324 166.661 0.080773 166.67C0.082508 166.685 0.080773 166.694 0.0877136 166.71L0.256023 167.086C0.342779 167.279 0.518032 167.381 0.710619 167.416C0.745322 167.431 0.77308 167.45 0.809522 167.456C0.851166 167.471 0.889341 167.471 0.929248 167.471H0.930983C0.96048 167.471 0.983038 167.461 1.00559 167.456C1.05071 167.45 1.09235 167.45 1.13573 167.437L1.2971 167.38C1.34742 167.369 1.37692 167.335 1.41682 167.312C1.43418 167.29 1.45153 167.29 1.46367 167.285L1.46246 167.285ZM72.9295 81.3024L74.276 79.4566C74.2881 79.4411 74.2881 79.4273 74.2985 79.4117C74.3037 79.4066 74.3107 79.4014 74.3159 79.3962L74.59 78.9041L74.8607 78.5501L75.1036 78.317L75.3032 78.1962L75.475 78.1616L75.671 78.172L128.833 91.7351L128.907 91.7852L129.044 91.9682L129.216 92.3343L129.381 92.892L129.511 93.5826V93.5878L129.702 94.6134L129.329 94.5789L76.0562 89.8408L75.7023 89.8063H75.6971L70.8384 89.3712L71.1195 88.8445C71.1351 88.81 71.1351 88.7824 71.1473 88.7479C71.1473 88.7375 71.1646 88.7323 71.1664 88.7237L71.3885 87.9122C71.3937 87.888 71.3885 87.8673 71.3902 87.85C71.3919 87.8258 71.4076 87.8103 71.4076 87.7827L71.4544 86.9366C71.4561 86.9124 71.4475 86.8917 71.4475 86.8693C71.4475 86.8537 71.4544 86.8347 71.4492 86.8123L71.3243 85.9904C71.3191 85.9662 71.3069 85.9455 71.3 85.923C71.293 85.9006 71.2982 85.873 71.2878 85.8557L70.9911 85.1098C70.9807 85.0856 70.9634 85.0752 70.953 85.0528C70.9408 85.0286 70.9339 85.001 70.92 84.9768L70.5868 84.521L70.5816 84.5158L72.9295 81.3024ZM63.676 215.082L63.4695 215.979L62.8553 216.831L61.8124 217.613L60.3948 218.241L58.71 218.637L56.8915 218.783L55.0783 218.637L53.3917 218.241L51.9758 217.613L50.933 216.836L50.3136 215.985L50.1071 215.081L51.7763 173.258L52.5398 173.833C52.5502 173.844 52.5727 173.838 52.5849 173.844C52.6126 173.868 52.6317 173.889 52.6612 173.901L53.8307 174.419C53.8533 174.424 53.8689 174.424 53.8828 174.429C53.9053 174.434 53.9175 174.448 53.9331 174.448L55.2934 174.778C55.316 174.783 55.3403 174.783 55.3663 174.788C55.3733 174.788 55.3837 174.793 55.3906 174.793L56.8534 174.906H56.895H56.8967H56.9419L58.4029 174.793C58.4133 174.793 58.4202 174.788 58.4306 174.788C58.4549 174.783 58.4775 174.783 58.5035 174.778L59.8639 174.448C59.8812 174.448 59.8934 174.432 59.9159 174.429C59.9315 174.424 59.9506 174.424 59.968 174.419L61.1323 173.901C61.1652 173.885 61.1843 173.866 61.2173 173.844C61.2277 173.838 61.245 173.844 61.2572 173.833L62.0154 173.263L63.676 215.082ZM61.9183 171L61.7708 171.638L61.3335 172.243L60.5666 172.818L59.5151 173.284L58.2537 173.583L56.8864 173.69L55.526 173.583L54.2628 173.284L53.213 172.818L52.4495 172.248L52.0088 171.638L51.8578 170.989L53.2789 106.1L56.9488 101.733C56.9488 101.733 56.9488 101.728 56.9505 101.728C56.9505 101.723 56.9522 101.723 56.9522 101.723L57.3062 101.282H57.3131L57.3531 101.231L57.4624 101.094H57.4641L57.8181 100.649L58.1668 100.214L58.172 100.208C58.172 100.208 58.172 100.203 58.1738 100.203L58.4306 99.8683L60.3254 97.8291L61.9183 171ZM68.0105 85.1273C68.0452 85.1083 68.0625 85.0876 68.0955 85.0703C68.1024 85.06 68.1233 85.0651 68.1337 85.0548L68.4824 84.794C68.5553 84.8286 68.6369 84.8458 68.7288 84.8458C68.7809 84.8458 68.8329 84.8269 68.885 84.8113L68.9596 84.8976L69.1852 85.2689L69.4489 85.8387L69.6207 86.2341L69.7127 86.5881L69.7855 87.2027V87.2079L69.815 87.5032L69.7769 87.8226L69.7248 88.3009L69.5877 88.7671L69.357 89.235L69.1522 89.5389V89.5441L69.1366 89.5596L69.0689 89.6615L68.7358 90.0155L68.3506 90.29H68.3488L68.0851 90.4834L67.7936 90.6198L67.254 90.8477L66.8792 90.9496L66.4679 90.9945L66.1174 91.029C65.8745 90.9375 65.5848 90.9945 65.4165 91.2172L65.354 91.2984L65.3366 91.3225L65.0434 90.9513C65.0365 90.9461 65.0278 90.9461 65.0243 90.9358C65.0174 90.9306 65.0174 90.9202 65.0052 90.9168L64.5003 90.385C64.4934 90.385 64.4847 90.3798 64.4812 90.3746C64.476 90.3746 64.4743 90.3643 64.4708 90.3591L63.8635 89.8065C63.8566 89.8014 63.8531 89.8014 63.8514 89.7962C63.8444 89.791 63.8444 89.791 63.8357 89.7858L63.1712 89.2489C63.166 89.2437 63.1642 89.2437 63.1556 89.2385C63.1504 89.2333 63.1504 89.2281 63.1434 89.2281L62.4685 88.7412C62.4667 88.736 62.4563 88.736 62.4528 88.7308C62.4424 88.7308 62.4407 88.7205 62.4337 88.7205L61.7952 88.3199C61.79 88.3147 61.7796 88.3147 61.7727 88.3147C61.7675 88.3044 61.7605 88.2992 61.7553 88.2957L61.1949 88.0056C61.1827 87.9953 61.1671 87.9953 61.155 87.9953C61.1376 87.9849 61.1272 87.9763 61.1133 87.9711L60.6708 87.8123C60.6552 87.7967 60.6483 87.7829 60.6292 87.7725C60.5424 87.7 60.447 87.6655 60.3429 87.6569L60.3186 87.4186L60.4158 86.5104L60.7073 85.521L61.1879 84.535L61.5991 83.9359C61.6564 84.1085 61.7865 84.2449 61.9566 84.3123L62.1162 84.5298C62.1284 84.5488 62.1509 84.5592 62.1631 84.5747C62.1908 84.6093 62.2099 84.6369 62.2446 84.6662L62.7652 85.053C62.7756 85.0634 62.7929 85.0582 62.8068 85.0685C62.8311 85.0875 62.8519 85.1083 62.8832 85.1255L63.5581 85.4242C63.5807 85.4346 63.598 85.4294 63.6102 85.4346C63.6327 85.4398 63.6449 85.4536 63.6622 85.4588L64.45 85.6418C64.4725 85.6522 64.5003 85.6522 64.5229 85.6522C64.5298 85.6522 64.5385 85.6573 64.5454 85.6573L65.3939 85.7247C65.4095 85.7299 65.4234 85.7299 65.4408 85.7299C65.4633 85.7299 65.4755 85.7299 65.4876 85.7247L66.3326 85.6573C66.3396 85.6573 66.3482 85.6522 66.3517 85.6522C66.376 85.6522 66.4038 85.6522 66.4263 85.6418L67.2106 85.4588C67.2297 85.4536 67.2488 85.4398 67.2626 85.4346C67.2817 85.4294 67.3025 85.4294 67.3147 85.4242L68.0105 85.1273ZM59.0083 87.3271C59.0083 87.3512 58.9979 87.3771 59.0014 87.3944L59.1107 88.2888C59.1125 88.3285 59.1333 88.3613 59.1454 88.3959C59.1558 88.42 59.1506 88.4459 59.161 88.4632L59.4768 89.1642H59.4786V89.1746C59.4803 89.1798 59.4855 89.1798 59.4855 89.1798C59.4907 89.1987 59.5081 89.2091 59.515 89.2195C59.515 89.254 59.5324 89.2764 59.5341 89.3006C59.5341 89.311 59.5341 89.3196 59.5393 89.33L59.4855 89.3869L59.1541 89.2903L58.7012 88.8638L58.3802 88.1628L58.2588 87.1855L58.3837 86.0252L58.7672 84.7423L59.3658 83.4991L60.1675 82.3388L61.0784 81.3753L61.7083 80.9195L62.2948 81.3114V81.3977L61.625 81.8847C61.6077 81.895 61.6025 81.9089 61.5921 81.9244C61.573 81.9348 61.5591 81.9399 61.5469 81.9538C61.5469 81.9538 61.54 81.9538 61.54 81.9641L60.7644 82.7756C60.7522 82.7912 60.7488 82.805 60.7401 82.8153C60.7279 82.8309 60.7106 82.8343 60.7054 82.8551L60.0339 83.8272C60.0235 83.8375 60.0235 83.8513 60.0148 83.8721C60.0096 83.8824 59.9957 83.8962 59.987 83.9066L59.4769 84.9702C59.47 84.9805 59.47 84.9944 59.4648 85.0151C59.4596 85.0306 59.4474 85.0392 59.4457 85.06L59.1247 86.134C59.1177 86.153 59.1177 86.1737 59.1177 86.1909C59.1125 86.2065 59.1056 86.2203 59.1021 86.241L58.9928 87.2615C59.0015 87.2839 59.0083 87.3081 59.0083 87.3271ZM54.9689 92.1774L54.3026 90.7063L54.0614 88.7725L54.3078 86.5002L55.0348 84.0639L56.1922 81.6707L57.7052 79.4657L58.3802 78.7561L59.9331 79.7714L59.5896 80.0234C59.5739 80.0286 59.5653 80.0476 59.5514 80.0632C59.5358 80.0735 59.5184 80.0787 59.5063 80.0925L58.5155 81.1268C58.5086 81.1371 58.4999 81.1509 58.493 81.1717C58.4808 81.182 58.4652 81.1872 58.453 81.2062L57.6115 82.4338C57.5994 82.4494 57.5994 82.4632 57.589 82.4735C57.582 82.4925 57.5699 82.5029 57.5612 82.5184L56.9123 83.8618C56.9053 83.8808 56.9053 83.8963 56.9018 83.9119C56.8949 83.9274 56.8828 83.936 56.8776 83.9568L56.4646 85.3208C56.4594 85.345 56.4646 85.3657 56.4629 85.383C56.4611 85.4002 56.4472 85.4123 56.4472 85.433L56.3154 86.7142C56.3136 86.7384 56.3223 86.7643 56.3223 86.7867C56.3223 86.8092 56.3119 86.8264 56.3154 86.8541L56.4576 87.985C56.4594 88.0196 56.475 88.0472 56.4854 88.0765C56.4958 88.1059 56.4958 88.1387 56.508 88.1629L56.9157 89.0607C56.9175 89.0659 56.9261 89.0659 56.9279 89.0763C56.9626 89.1384 57.0025 89.1971 57.0597 89.2489L57.7035 89.8533C57.726 89.8688 57.7451 89.8774 57.7625 89.893C57.785 89.9033 57.7972 89.9223 57.818 89.9379L58.5398 90.354C58.552 90.3643 58.5641 90.3592 58.5745 90.3643C58.5988 90.3799 58.6266 90.3885 58.6509 90.4041C58.6526 90.4092 58.6578 90.4092 58.663 90.4144L58.021 91.2121C58.0158 91.2173 58.0141 91.2277 58.0141 91.2277C58.0071 91.238 58.0037 91.238 57.9985 91.2432L56.5357 93.2824L55.9718 93.1098L54.9689 92.1774ZM55.7948 94.3237L55.2309 95.111L54.9377 95.0385L54.4623 94.8313V93.6502L55.3576 94.1717C55.3697 94.1769 55.3819 94.1769 55.3975 94.1769C55.4218 94.1924 55.4443 94.2114 55.4669 94.2166C55.4773 94.2166 55.4791 94.2218 55.486 94.227L55.7948 94.3237ZM54.4519 96.1608L54.1812 96.5148L53.8498 96.9413H53.8446L53.4993 97.3816L53.4698 97.4213L53.5079 95.724H53.5183C53.5461 95.7482 53.5687 95.7689 53.5982 95.7862L54.4519 96.1608ZM56.1055 74.8556L56.1523 74.4395V74.4343L64.6374 2.919L64.7068 2.73079L64.9011 2.48906L65.2447 2.20416L65.7444 1.91926L66.3986 1.63954L67.2835 1.365V2.12127L67.3061 73.2255V74.1579V74.1631V74.1683L67.313 74.6241V74.6345L67.3182 75.0851L67.3338 75.5116V75.5168L67.346 75.9277L67.3512 77.2521L67.3842 80.5845V82.8724C67.3842 82.8827 67.3859 82.8879 67.3859 82.8965L67.2384 83.1918L66.796 83.5061H66.7803L66.1158 83.7133H66.1088L66.1071 83.7184L65.2656 83.7685H65.2586L65.2465 83.7737L65.1944 83.7633H65.1892L64.4709 83.6373H64.4535L63.9329 83.3956C63.9329 83.3904 63.9312 83.3956 63.9277 83.3904C63.9277 83.3904 63.9225 83.3904 63.9208 83.3852L63.8514 83.3558L63.5876 83.0709L63.5234 82.7325V82.7222V81.9607C63.7126 81.9503 63.8948 81.864 64.0041 81.6965C64.1863 81.4168 64.1117 81.0386 63.8254 80.8556L63.2475 80.4758L62.0295 79.6832L61.3475 79.2326H61.3423L61.325 79.217C61.325 79.217 61.318 79.217 61.318 79.2118L58.6268 77.461L57.4677 76.7013C57.4625 76.6961 57.4573 76.6961 57.4521 76.6909C57.4469 76.6909 57.4452 76.6857 57.4417 76.6857L57.0686 76.4578H57.0634H57.0617L56.9368 76.3922L56.6609 76.1643L56.588 76.1073L56.3364 75.812L56.175 75.5133L56.1056 75.2146L56.1055 74.8556ZM56.8568 77.7616L57.3426 78.081L56.7874 78.6698C56.7718 78.6854 56.7683 78.6992 56.7596 78.7095C56.7475 78.7251 56.7319 78.7285 56.7215 78.7441L55.1546 81.0215C55.1442 81.037 55.1442 81.0509 55.139 81.0716C55.1321 81.0871 55.1199 81.0906 55.1113 81.1061L53.9071 83.5908C53.9019 83.6063 53.9054 83.6253 53.9001 83.6357C53.8932 83.6547 53.8776 83.665 53.8706 83.6857L53.1193 86.2136C53.1089 86.2326 53.1141 86.2585 53.1141 86.2706C53.1072 86.2896 53.102 86.3051 53.095 86.3224L52.8382 88.7156C52.8365 88.7397 52.8435 88.7604 52.8435 88.7777C52.8435 88.8071 52.8365 88.8295 52.8382 88.8537L53.0499 90.5734L52.6942 89.7964L52.4548 87.8626L52.4739 87.6744L52.5086 87.3757L52.6994 85.5903L53.4299 83.154L54.5838 80.7556L56.0934 78.5507L56.8568 77.7616ZM53.2355 92.9492V93.5777L53.1974 93.4102V92.9267L53.2355 92.9492ZM51.7867 82.3715C51.7798 82.387 51.7815 82.4008 51.7746 82.4216C51.7728 82.4371 51.7589 82.4457 51.752 82.4664L50.9989 84.9908C50.992 85.0098 50.9972 85.0305 50.9972 85.0478C50.9903 85.0668 50.9799 85.0823 50.9747 85.0979L50.7179 87.4962C50.7161 87.5204 50.7248 87.5411 50.7248 87.5635C50.7248 87.586 50.7144 87.6136 50.7179 87.6309L50.9764 89.7305C50.9816 89.765 50.9955 89.7927 51.0059 89.822C51.0128 89.8514 51.0128 89.879 51.0284 89.9084L51.0805 90.024L50.8515 89.8168L50.1817 88.3457L49.9405 86.4119L50.1834 84.1448L50.9139 81.7136L52.0747 79.2998L53.5791 77.1086L54.9499 75.6738L55.0054 75.8913C55.0106 75.9017 55.0227 75.9069 55.0245 75.9207C55.0366 75.9552 55.0366 75.988 55.0575 76.0174L55.2709 76.4335C55.2865 76.4525 55.3004 76.4629 55.3125 76.4784C55.3247 76.5026 55.3316 76.5285 55.3524 76.5509L55.4253 76.6321L54.6514 77.4488C54.6393 77.4644 54.6341 77.4782 54.6271 77.4937C54.615 77.5092 54.6028 77.5127 54.5924 77.5282L53.0256 79.8057C53.0152 79.8212 53.0152 79.835 53.01 79.8506C52.9978 79.8661 52.9874 79.8696 52.977 79.8851L51.7867 82.3715ZM1.58341 165.552L1.77948 165.288H1.78122L53.3038 99.5806L53.7497 99.0108L54.1037 98.5756L54.4594 98.1405C54.4611 98.1405 54.4611 98.1353 54.4611 98.1353V98.1302L54.8151 97.6899L55.1517 97.2547H55.1569L55.4831 96.8283V96.8231L55.7937 96.4225C55.7937 96.4173 55.7937 96.4121 55.7989 96.4121L55.9811 96.16V96.1549L55.9915 96.1497L57.2825 94.3419H57.2842L58.9864 91.9574L60.1923 90.4621L60.7198 89.8128L60.7666 89.8232L61.3444 90.1271L62.0611 90.614L62.7967 91.2184L63.3867 91.7934L63.6973 92.1939C63.6955 92.1939 63.6955 92.1991 63.6955 92.1991L62.0732 94.2072L61.7817 94.506L58.235 98.1475C58.2194 98.163 58.2159 98.1769 58.2055 98.1924C58.2003 98.1976 58.1934 98.2027 58.1882 98.2079L57.8741 98.6085L57.5479 99.035C57.5479 99.0402 57.5479 99.0402 57.5462 99.0454L57.5063 99.0851C57.5063 99.0903 57.5045 99.0954 57.5011 99.0954C57.4959 99.1006 57.4941 99.1006 57.4889 99.1058C57.4889 99.111 57.4837 99.1162 57.482 99.1213C57.4802 99.1213 57.475 99.1317 57.475 99.1317L57.2113 99.4701V99.4753L56.8729 99.8966V99.9018L56.8261 99.9588L56.7185 100.09L56.4357 100.444L56.3576 100.525C56.3559 100.525 56.3559 100.53 56.3559 100.53L56.0054 100.965L52.2123 105.486L2.07564 165.098V165.103L1.85701 165.355L1.61756 165.616L1.45272 165.762L1.58341 165.552Z" fill="#001A23"/>
</svg>
